<svg width="78" height="52" viewBox="0 0 78 52" fill="none" xmlns="http://www.w3.org/2000/svg">
<rect x="0.227539" y="8.18677" width="10.9836" height="8.65375" fill="white"/>
<rect x="11.21" y="8.18677" width="10.9836" height="8.65375" fill="white"/>
<path d="M16.7871 10.2815V13.8557H16.3354V10.8455L15.4248 11.1775V10.7698L16.7163 10.2815H16.7871Z" fill="#172755"/>
<rect x="22.1943" y="8.18677" width="10.9836" height="8.65375" fill="white"/>
<path d="M28.6162 13.4846V13.8557H26.2896V13.531L27.4541 12.2346C27.5973 12.0751 27.708 11.94 27.7861 11.8293C27.8659 11.717 27.9212 11.6169 27.9521 11.5291C27.9847 11.4395 28.001 11.3484 28.001 11.2556C28.001 11.1384 27.9766 11.0326 27.9277 10.9382C27.8805 10.8422 27.8105 10.7657 27.7178 10.7087C27.625 10.6518 27.5127 10.6233 27.3809 10.6233C27.223 10.6233 27.0911 10.6542 26.9854 10.7161C26.8812 10.7763 26.8031 10.8609 26.751 10.97C26.6989 11.079 26.6729 11.2043 26.6729 11.3459H26.2212C26.2212 11.1458 26.2651 10.9626 26.353 10.7966C26.4409 10.6306 26.5711 10.4988 26.7437 10.4011C26.9162 10.3018 27.1286 10.2522 27.3809 10.2522C27.6055 10.2522 27.7975 10.2921 27.957 10.3718C28.1165 10.45 28.2386 10.5606 28.3232 10.7039C28.4095 10.8455 28.4526 11.0115 28.4526 11.2019C28.4526 11.3061 28.4347 11.4119 28.3989 11.5193C28.3647 11.6251 28.3167 11.7309 28.2549 11.8367C28.1947 11.9425 28.1239 12.0466 28.0425 12.1492C27.9627 12.2517 27.8773 12.3526 27.7861 12.4519L26.834 13.4846H28.6162Z" fill="#172755"/>
<rect x="33.1777" y="8.18677" width="10.9836" height="8.65375" fill="white"/>
<path d="M37.9297 11.8562H38.252C38.4098 11.8562 38.54 11.8302 38.6426 11.7781C38.7467 11.7244 38.8241 11.6519 38.8745 11.5608C38.9266 11.468 38.9526 11.3639 38.9526 11.2483C38.9526 11.1116 38.9299 10.9968 38.8843 10.9041C38.8387 10.8113 38.7703 10.7413 38.6792 10.6941C38.5881 10.6469 38.4725 10.6233 38.3325 10.6233C38.2056 10.6233 38.0933 10.6485 37.9956 10.699C37.8996 10.7478 37.8239 10.8178 37.7686 10.9089C37.7148 11.0001 37.688 11.1075 37.688 11.2312H37.2363C37.2363 11.0505 37.2819 10.8861 37.373 10.738C37.4642 10.5899 37.592 10.4719 37.7563 10.384C37.9224 10.2961 38.1144 10.2522 38.3325 10.2522C38.5474 10.2522 38.7354 10.2904 38.8965 10.3669C39.0576 10.4418 39.1829 10.5541 39.2725 10.7039C39.362 10.852 39.4067 11.0367 39.4067 11.2581C39.4067 11.3476 39.3856 11.4436 39.3433 11.5461C39.3026 11.6471 39.2383 11.7415 39.1504 11.8293C39.0641 11.9172 38.9518 11.9897 38.8135 12.0466C38.6751 12.102 38.5091 12.1296 38.3154 12.1296H37.9297V11.8562ZM37.9297 12.2273V11.9563H38.3154C38.5417 11.9563 38.7288 11.9832 38.877 12.0369C39.0251 12.0906 39.1414 12.1622 39.2261 12.2517C39.3123 12.3412 39.3726 12.4397 39.4067 12.5471C39.4425 12.6529 39.4604 12.7587 39.4604 12.8645C39.4604 13.0305 39.432 13.1778 39.375 13.3064C39.3197 13.435 39.2407 13.544 39.1382 13.6335C39.0373 13.7231 38.9185 13.7906 38.7817 13.8362C38.645 13.8818 38.4961 13.9045 38.335 13.9045C38.1803 13.9045 38.0347 13.8826 37.8979 13.8386C37.7629 13.7947 37.6432 13.7312 37.5391 13.6482C37.4349 13.5636 37.3535 13.4602 37.2949 13.3381C37.2363 13.2144 37.207 13.0736 37.207 12.9158H37.6587C37.6587 13.0395 37.6855 13.1477 37.7393 13.2405C37.7946 13.3333 37.8727 13.4057 37.9736 13.4578C38.0762 13.5082 38.1966 13.5334 38.335 13.5334C38.4733 13.5334 38.5921 13.5098 38.6914 13.4626C38.7923 13.4138 38.8696 13.3406 38.9233 13.2429C38.9787 13.1453 39.0063 13.0224 39.0063 12.8743C39.0063 12.7262 38.9754 12.6049 38.9136 12.5105C38.8517 12.4145 38.7638 12.3437 38.6499 12.2981C38.5376 12.2509 38.4049 12.2273 38.252 12.2273H37.9297Z" fill="#172755"/>
<rect x="44.1616" y="8.18677" width="10.9836" height="8.65375" fill="white"/>
<path d="M50.6567 12.6594V13.0305H48.0884V12.7644L49.6802 10.301H50.0488L49.6533 11.0139L48.6011 12.6594H50.6567ZM50.1611 10.301V13.8557H49.7095V10.301H50.1611Z" fill="#172755"/>
<rect x="55.1445" y="8.18677" width="10.9836" height="8.65375" fill="white"/>
<path d="M59.8086 12.1638L59.4473 12.071L59.6255 10.301H61.4492V10.7185H60.0088L59.9014 11.6853C59.9665 11.6479 60.0487 11.6129 60.1479 11.5803C60.2489 11.5478 60.3644 11.5315 60.4946 11.5315C60.659 11.5315 60.8063 11.56 60.9365 11.6169C61.0667 11.6723 61.1774 11.752 61.2686 11.8562C61.3613 11.9604 61.4321 12.0857 61.481 12.2322C61.5298 12.3787 61.5542 12.5422 61.5542 12.7229C61.5542 12.8938 61.5306 13.0509 61.4834 13.1941C61.4378 13.3373 61.3687 13.4626 61.2759 13.5701C61.1831 13.6759 61.0659 13.7581 60.9243 13.8167C60.7843 13.8752 60.6191 13.9045 60.4287 13.9045C60.2855 13.9045 60.1496 13.885 60.021 13.8459C59.894 13.8053 59.7801 13.7442 59.6792 13.6628C59.5799 13.5798 59.4985 13.4773 59.4351 13.3552C59.3732 13.2315 59.3341 13.0867 59.3179 12.9207H59.7476C59.7671 13.0541 59.8062 13.1664 59.8647 13.2576C59.9233 13.3487 59.9998 13.4179 60.0942 13.4651C60.1903 13.5107 60.3018 13.5334 60.4287 13.5334C60.5361 13.5334 60.6313 13.5147 60.7144 13.4773C60.7974 13.4399 60.8674 13.3861 60.9243 13.3162C60.9813 13.2462 61.0244 13.1615 61.0537 13.0623C61.0846 12.963 61.1001 12.8515 61.1001 12.7278C61.1001 12.6155 61.0846 12.5113 61.0537 12.4153C61.0228 12.3193 60.9764 12.2354 60.9146 12.1638C60.8543 12.0922 60.7803 12.0369 60.6924 11.9978C60.6045 11.9571 60.5036 11.9368 60.3896 11.9368C60.2383 11.9368 60.1235 11.9571 60.0454 11.9978C59.9689 12.0385 59.89 12.0938 59.8086 12.1638Z" fill="#172755"/>
<rect x="66.1289" y="8.18677" width="10.9836" height="8.65375" fill="white"/>
<path d="M71.9546 10.2961H71.9937V10.6794H71.9546C71.7153 10.6794 71.5151 10.7185 71.354 10.7966C71.1929 10.8731 71.0651 10.9765 70.9707 11.1067C70.8763 11.2353 70.8079 11.3801 70.7656 11.5413C70.7249 11.7024 70.7046 11.866 70.7046 12.032V12.5544C70.7046 12.7123 70.7233 12.8523 70.7607 12.9744C70.7982 13.0948 70.8494 13.1965 70.9146 13.2795C70.9797 13.3625 71.0529 13.4252 71.1343 13.4675C71.2173 13.5098 71.3035 13.531 71.3931 13.531C71.4972 13.531 71.59 13.5115 71.6714 13.4724C71.7528 13.4317 71.8211 13.3756 71.8765 13.304C71.9334 13.2307 71.9766 13.1444 72.0059 13.0452C72.0352 12.9459 72.0498 12.8368 72.0498 12.718C72.0498 12.6122 72.0368 12.5105 72.0107 12.4128C71.9847 12.3136 71.9448 12.2257 71.8911 12.1492C71.8374 12.071 71.7699 12.01 71.6885 11.9661C71.6087 11.9205 71.5135 11.8977 71.4028 11.8977C71.2775 11.8977 71.1603 11.9286 71.0513 11.9905C70.9438 12.0507 70.8551 12.1305 70.7852 12.2297C70.7168 12.3274 70.6777 12.434 70.668 12.5496L70.4287 12.5471C70.4515 12.3648 70.4938 12.2094 70.5557 12.0808C70.6191 11.9506 70.6973 11.8448 70.79 11.7634C70.8844 11.6804 70.9894 11.6202 71.105 11.5828C71.2222 11.5437 71.3459 11.5242 71.4761 11.5242C71.6535 11.5242 71.8065 11.5575 71.9351 11.6243C72.0636 11.691 72.1694 11.7805 72.2524 11.8928C72.3354 12.0035 72.3965 12.1288 72.4355 12.2688C72.4762 12.4071 72.4966 12.5496 72.4966 12.696C72.4966 12.8637 72.473 13.0208 72.4258 13.1672C72.3786 13.3137 72.3078 13.4423 72.2134 13.553C72.1206 13.6637 72.0059 13.7499 71.8691 13.8118C71.7324 13.8736 71.5737 13.9045 71.3931 13.9045C71.201 13.9045 71.0334 13.8655 70.8901 13.7874C70.7469 13.7076 70.6281 13.6018 70.5337 13.47C70.4393 13.3381 70.3685 13.1917 70.3213 13.0305C70.2741 12.8694 70.2505 12.7058 70.2505 12.5398V12.3274C70.2505 12.0767 70.2757 11.831 70.3262 11.5901C70.3766 11.3492 70.4637 11.1311 70.5874 10.9358C70.7127 10.7405 70.8861 10.585 71.1074 10.4695C71.3288 10.3539 71.6112 10.2961 71.9546 10.2961Z" fill="#172755"/>
<rect x="0.227539" y="16.8406" width="10.9836" height="8.65375" fill="white"/>
<path d="M6.61719 18.9548V19.2087L5.14502 22.5095H4.66895L6.13867 19.3259H4.21484V18.9548H6.61719Z" fill="#172755"/>
<rect x="11.21" y="16.8406" width="10.9836" height="8.65375" fill="white"/>
<circle cx="16.6187" cy="21.0841" r="3.24516" fill="#0088F0"/>
<path d="M17.5439 21.5476C17.5439 21.7641 17.4935 21.948 17.3926 22.0994C17.2933 22.2491 17.1582 22.363 16.9873 22.4412C16.818 22.5193 16.6268 22.5583 16.4136 22.5583C16.2004 22.5583 16.0083 22.5193 15.8374 22.4412C15.6665 22.363 15.5314 22.2491 15.4321 22.0994C15.3328 21.948 15.2832 21.7641 15.2832 21.5476C15.2832 21.406 15.3101 21.2766 15.3638 21.1594C15.4191 21.0406 15.4964 20.9373 15.5957 20.8494C15.6966 20.7615 15.8154 20.6939 15.9521 20.6467C16.0905 20.5979 16.2427 20.5735 16.4087 20.5735C16.6268 20.5735 16.8213 20.6158 16.9922 20.7004C17.1631 20.7834 17.2974 20.8982 17.395 21.0447C17.4943 21.1912 17.5439 21.3588 17.5439 21.5476ZM17.0898 21.5378C17.0898 21.406 17.0614 21.2896 17.0044 21.1887C16.9474 21.0862 16.8677 21.0064 16.7651 20.9495C16.6626 20.8925 16.5438 20.864 16.4087 20.864C16.2703 20.864 16.1507 20.8925 16.0498 20.9495C15.9505 21.0064 15.8732 21.0862 15.8179 21.1887C15.7625 21.2896 15.7349 21.406 15.7349 21.5378C15.7349 21.6746 15.7617 21.7917 15.8154 21.8894C15.8708 21.9854 15.9489 22.0595 16.0498 22.1116C16.1523 22.162 16.2736 22.1873 16.4136 22.1873C16.5535 22.1873 16.674 22.162 16.7749 22.1116C16.8758 22.0595 16.9531 21.9854 17.0068 21.8894C17.0622 21.7917 17.0898 21.6746 17.0898 21.5378ZM17.4609 19.8801C17.4609 20.0527 17.4154 20.2081 17.3242 20.3464C17.2331 20.4848 17.1086 20.5938 16.9507 20.6736C16.7928 20.7533 16.6138 20.7932 16.4136 20.7932C16.2101 20.7932 16.0286 20.7533 15.8691 20.6736C15.7113 20.5938 15.5876 20.4848 15.498 20.3464C15.4085 20.2081 15.3638 20.0527 15.3638 19.8801C15.3638 19.6734 15.4085 19.4976 15.498 19.3528C15.5892 19.2079 15.7137 19.0972 15.8716 19.0208C16.0295 18.9443 16.2093 18.906 16.4111 18.906C16.6146 18.906 16.7952 18.9443 16.9531 19.0208C17.111 19.0972 17.2347 19.2079 17.3242 19.3528C17.4154 19.4976 17.4609 19.6734 17.4609 19.8801ZM17.0093 19.8875C17.0093 19.7686 16.984 19.6637 16.9336 19.5725C16.8831 19.4814 16.8132 19.4097 16.7236 19.3577C16.6341 19.304 16.5299 19.2771 16.4111 19.2771C16.2923 19.2771 16.1882 19.3023 16.0986 19.3528C16.0107 19.4016 15.9416 19.4716 15.8911 19.5627C15.8423 19.6539 15.8179 19.7621 15.8179 19.8875C15.8179 20.0095 15.8423 20.1161 15.8911 20.2073C15.9416 20.2984 16.0116 20.3692 16.1011 20.4197C16.1906 20.4701 16.2948 20.4954 16.4136 20.4954C16.5324 20.4954 16.6357 20.4701 16.7236 20.4197C16.8132 20.3692 16.8831 20.2984 16.9336 20.2073C16.984 20.1161 17.0093 20.0095 17.0093 19.8875Z" fill="#EEEEF7"/>
<rect x="22.1943" y="16.8406" width="10.9836" height="8.65375" fill="white"/>
<circle cx="27.6031" cy="21.0841" r="3.24516" fill="#0088F0"/>
<path d="M26.7363 22.1311H26.7827C27.0431 22.1311 27.2547 22.0945 27.4175 22.0212C27.5802 21.948 27.7056 21.8495 27.7935 21.7258C27.8813 21.6021 27.9416 21.463 27.9741 21.3083C28.0067 21.1521 28.0229 20.9918 28.0229 20.8274V20.283C28.0229 20.1218 28.0042 19.9786 27.9668 19.8533C27.931 19.7279 27.8805 19.623 27.8154 19.5383C27.752 19.4537 27.6795 19.3894 27.5981 19.3455C27.5168 19.3015 27.4305 19.2795 27.3394 19.2795C27.2352 19.2795 27.1416 19.3007 27.0586 19.343C26.9772 19.3837 26.908 19.4415 26.8511 19.5164C26.7957 19.5912 26.7534 19.6791 26.7241 19.78C26.6948 19.8809 26.6802 19.9908 26.6802 20.1096C26.6802 20.2154 26.6932 20.318 26.7192 20.4172C26.7453 20.5165 26.7852 20.606 26.8389 20.6858C26.8926 20.7655 26.9593 20.829 27.0391 20.8762C27.1204 20.9218 27.2157 20.9446 27.3247 20.9446C27.4256 20.9446 27.52 20.925 27.6079 20.886C27.6974 20.8453 27.7764 20.7908 27.8447 20.7224C27.9147 20.6524 27.9701 20.5735 28.0107 20.4856C28.0531 20.3977 28.0775 20.3057 28.084 20.2097H28.2988C28.2988 20.3448 28.272 20.4783 28.2183 20.6101C28.1662 20.7403 28.0929 20.8591 27.9985 20.9666C27.9041 21.074 27.7935 21.1602 27.6665 21.2253C27.5396 21.2888 27.4012 21.3206 27.2515 21.3206C27.0757 21.3206 26.9235 21.2864 26.7949 21.218C26.6663 21.1497 26.5605 21.0585 26.4775 20.9446C26.3962 20.8306 26.3351 20.7037 26.2944 20.5637C26.2554 20.4221 26.2358 20.2789 26.2358 20.134C26.2358 19.9648 26.2594 19.8061 26.3066 19.658C26.3538 19.5098 26.4238 19.3796 26.5166 19.2673C26.6094 19.1534 26.7241 19.0647 26.8608 19.0012C26.9992 18.9377 27.1587 18.906 27.3394 18.906C27.5428 18.906 27.7161 18.9467 27.8594 19.0281C28.0026 19.1095 28.119 19.2185 28.2085 19.3552C28.2996 19.4919 28.3664 19.6458 28.4087 19.8167C28.451 19.9875 28.4722 20.1633 28.4722 20.344V20.5076C28.4722 20.6915 28.46 20.8787 28.4355 21.0691C28.4128 21.2579 28.368 21.4386 28.3013 21.6111C28.2362 21.7836 28.141 21.9382 28.0156 22.075C27.8903 22.21 27.7267 22.3175 27.5249 22.3972C27.3247 22.4753 27.0773 22.5144 26.7827 22.5144H26.7363V22.1311Z" fill="#EEEEF7"/>
<rect x="33.1777" y="16.8406" width="10.9836" height="8.65375" fill="white"/>
<circle cx="38.5865" cy="21.0841" r="3.24516" fill="#0088F0"/>
<path d="M37.0151 18.9353V22.5095H36.5635V19.4993L35.6528 19.8313V19.4236L36.9443 18.9353H37.0151ZM40.5747 20.449V20.991C40.5747 21.2823 40.5487 21.5281 40.4966 21.7283C40.4445 21.9285 40.3696 22.0896 40.272 22.2117C40.1743 22.3337 40.0563 22.4224 39.918 22.4778C39.7812 22.5315 39.6266 22.5583 39.4541 22.5583C39.3174 22.5583 39.1912 22.5413 39.0757 22.5071C38.9601 22.4729 38.856 22.4184 38.7632 22.3435C38.672 22.267 38.5939 22.1677 38.5288 22.0457C38.4637 21.9236 38.4141 21.7755 38.3799 21.6013C38.3457 21.4272 38.3286 21.2237 38.3286 20.991V20.449C38.3286 20.1576 38.3547 19.9135 38.4067 19.7166C38.4604 19.5196 38.5361 19.3617 38.6338 19.2429C38.7314 19.1225 38.8486 19.0362 38.9854 18.9841C39.1237 18.932 39.2783 18.906 39.4492 18.906C39.5876 18.906 39.7145 18.9231 39.8301 18.9573C39.9473 18.9898 40.0514 19.0427 40.1426 19.116C40.2337 19.1876 40.311 19.2836 40.3745 19.4041C40.4396 19.5229 40.4893 19.6685 40.5234 19.8411C40.5576 20.0136 40.5747 20.2162 40.5747 20.449ZM40.1206 21.0642V20.3733C40.1206 20.2138 40.1108 20.0738 40.0913 19.9534C40.0734 19.8313 40.0465 19.7271 40.0107 19.6409C39.9749 19.5546 39.9294 19.4846 39.874 19.4309C39.8203 19.3772 39.7576 19.3381 39.686 19.3137C39.616 19.2877 39.5371 19.2747 39.4492 19.2747C39.3418 19.2747 39.2466 19.295 39.1636 19.3357C39.0806 19.3748 39.0106 19.4374 38.9536 19.5237C38.8983 19.6099 38.856 19.7231 38.8267 19.863C38.7974 20.003 38.7827 20.1731 38.7827 20.3733V21.0642C38.7827 21.2237 38.7917 21.3645 38.8096 21.4866C38.8291 21.6086 38.8576 21.7144 38.895 21.804C38.9325 21.8918 38.978 21.9643 39.0317 22.0212C39.0854 22.0782 39.1473 22.1205 39.2173 22.1482C39.2889 22.1742 39.3678 22.1873 39.4541 22.1873C39.5648 22.1873 39.6616 22.1661 39.7446 22.1238C39.8276 22.0815 39.8968 22.0155 39.9521 21.926C40.0091 21.8349 40.0514 21.7185 40.0791 21.5769C40.1068 21.4337 40.1206 21.2628 40.1206 21.0642Z" fill="#EEEEF7"/>
<rect x="44.1616" y="16.8406" width="10.9836" height="8.65375" fill="white"/>
<path d="M47.999 18.9353V22.5095H47.5474V19.4993L46.6367 19.8313V19.4236L47.9282 18.9353H47.999ZM50.8115 18.9353V22.5095H50.3599V19.4993L49.4492 19.8313V19.4236L50.7407 18.9353H50.8115Z" fill="#172755"/>
<rect x="55.1445" y="16.8406" width="10.9836" height="8.65375" fill="white"/>
<path d="M58.9819 18.9353V22.5095H58.5303V19.4993L57.6196 19.8313V19.4236L58.9111 18.9353H58.9819ZM62.6392 22.1384V22.5095H60.3125V22.1848L61.4771 20.8884C61.6203 20.7289 61.731 20.5938 61.8091 20.4832C61.8888 20.3708 61.9442 20.2708 61.9751 20.1829C62.0076 20.0933 62.0239 20.0022 62.0239 19.9094C62.0239 19.7922 61.9995 19.6864 61.9507 19.592C61.9035 19.496 61.8335 19.4195 61.7407 19.3625C61.6479 19.3056 61.5356 19.2771 61.4038 19.2771C61.2459 19.2771 61.1141 19.308 61.0083 19.3699C60.9041 19.4301 60.826 19.5147 60.7739 19.6238C60.7218 19.7328 60.6958 19.8582 60.6958 19.9998H60.2441C60.2441 19.7996 60.2881 19.6165 60.376 19.4504C60.4639 19.2844 60.5941 19.1526 60.7666 19.0549C60.9391 18.9556 61.1515 18.906 61.4038 18.906C61.6284 18.906 61.8205 18.9459 61.98 19.0256C62.1395 19.1038 62.2616 19.2144 62.3462 19.3577C62.4325 19.4993 62.4756 19.6653 62.4756 19.8557C62.4756 19.9599 62.4577 20.0657 62.4219 20.1731C62.3877 20.2789 62.3397 20.3847 62.2778 20.4905C62.2176 20.5963 62.1468 20.7004 62.0654 20.803C61.9857 20.9055 61.9002 21.0064 61.8091 21.1057L60.8569 22.1384H62.6392Z" fill="#172755"/>
<rect x="66.1289" y="16.8406" width="10.9836" height="8.65375" fill="white"/>
<path d="M69.9658 18.9353V22.5095H69.5142V19.4993L68.6035 19.8313V19.4236L69.895 18.9353H69.9658ZM71.9531 20.51H72.2754C72.4333 20.51 72.5635 20.484 72.666 20.4319C72.7702 20.3782 72.8475 20.3057 72.8979 20.2146C72.95 20.1218 72.9761 20.0177 72.9761 19.9021C72.9761 19.7654 72.9533 19.6506 72.9077 19.5579C72.8621 19.4651 72.7938 19.3951 72.7026 19.3479C72.6115 19.3007 72.4959 19.2771 72.356 19.2771C72.229 19.2771 72.1167 19.3023 72.019 19.3528C71.923 19.4016 71.8473 19.4716 71.792 19.5627C71.7383 19.6539 71.7114 19.7613 71.7114 19.885H71.2598C71.2598 19.7043 71.3053 19.54 71.3965 19.3918C71.4876 19.2437 71.6154 19.1257 71.7798 19.0378C71.9458 18.95 72.1379 18.906 72.356 18.906C72.5708 18.906 72.7588 18.9443 72.9199 19.0208C73.0811 19.0956 73.2064 19.2079 73.2959 19.3577C73.3854 19.5058 73.4302 19.6905 73.4302 19.9119C73.4302 20.0014 73.409 20.0974 73.3667 20.2C73.326 20.3009 73.2617 20.3953 73.1738 20.4832C73.0876 20.571 72.9753 20.6435 72.8369 20.7004C72.6986 20.7558 72.5326 20.7834 72.3389 20.7834H71.9531V20.51ZM71.9531 20.8811V20.6101H72.3389C72.5651 20.6101 72.7523 20.637 72.9004 20.6907C73.0485 20.7444 73.1649 20.816 73.2495 20.9055C73.3358 20.995 73.396 21.0935 73.4302 21.2009C73.466 21.3067 73.4839 21.4125 73.4839 21.5183C73.4839 21.6843 73.4554 21.8316 73.3984 21.9602C73.3431 22.0888 73.2642 22.1978 73.1616 22.2874C73.0607 22.3769 72.9419 22.4444 72.8052 22.49C72.6685 22.5356 72.5195 22.5583 72.3584 22.5583C72.2038 22.5583 72.0581 22.5364 71.9214 22.4924C71.7863 22.4485 71.6667 22.385 71.5625 22.302C71.4583 22.2174 71.377 22.114 71.3184 21.9919C71.2598 21.8682 71.2305 21.7275 71.2305 21.5696H71.6821C71.6821 21.6933 71.709 21.8015 71.7627 21.8943C71.818 21.9871 71.8962 22.0595 71.9971 22.1116C72.0996 22.162 72.2201 22.1873 72.3584 22.1873C72.4967 22.1873 72.6156 22.1637 72.7148 22.1165C72.8158 22.0676 72.8931 21.9944 72.9468 21.8967C73.0021 21.7991 73.0298 21.6762 73.0298 21.5281C73.0298 21.38 72.9989 21.2587 72.937 21.1643C72.8752 21.0683 72.7873 20.9975 72.6733 20.9519C72.561 20.9047 72.4284 20.8811 72.2754 20.8811H71.9531Z" fill="#172755"/>
<rect x="0.227539" y="25.4943" width="10.9836" height="8.65375" fill="white"/>
<path d="M4.06494 27.589V31.1632H3.61328V28.153L2.70264 28.485V28.0773L3.99414 27.589H4.06494ZM7.79541 29.9669V30.338H5.22705V30.0719L6.81885 27.6085H7.1875L6.79199 28.3214L5.73975 29.9669H7.79541ZM7.2998 27.6085V31.1632H6.84814V27.6085H7.2998Z" fill="#172755"/>
<rect x="11.21" y="25.4943" width="10.9836" height="8.65375" fill="white"/>
<path d="M15.0474 27.589V31.1632H14.5957V28.153L13.6851 28.485V28.0773L14.9766 27.589H15.0474ZM16.9468 29.4713L16.5854 29.3785L16.7637 27.6085H18.5874V28.026H17.147L17.0396 28.9928C17.1047 28.9554 17.1868 28.9204 17.2861 28.8878C17.387 28.8553 17.5026 28.839 17.6328 28.839C17.7972 28.839 17.9445 28.8675 18.0747 28.9244C18.2049 28.9798 18.3156 29.0595 18.4067 29.1637C18.4995 29.2679 18.5703 29.3932 18.6191 29.5397C18.668 29.6862 18.6924 29.8497 18.6924 30.0304C18.6924 30.2013 18.6688 30.3584 18.6216 30.5016C18.576 30.6448 18.5068 30.7701 18.4141 30.8776C18.3213 30.9834 18.2041 31.0656 18.0625 31.1241C17.9225 31.1827 17.7573 31.212 17.5669 31.212C17.4237 31.212 17.2878 31.1925 17.1592 31.1534C17.0322 31.1128 16.9183 31.0517 16.8174 30.9703C16.7181 30.8873 16.6367 30.7848 16.5732 30.6627C16.5114 30.539 16.4723 30.3942 16.4561 30.2281H16.8857C16.9053 30.3616 16.9443 30.4739 17.0029 30.5651C17.0615 30.6562 17.138 30.7254 17.2324 30.7726C17.3285 30.8182 17.4399 30.8409 17.5669 30.8409C17.6743 30.8409 17.7695 30.8222 17.8525 30.7848C17.9355 30.7474 18.0055 30.6936 18.0625 30.6237C18.1195 30.5537 18.1626 30.469 18.1919 30.3698C18.2228 30.2705 18.2383 30.159 18.2383 30.0353C18.2383 29.923 18.2228 29.8188 18.1919 29.7228C18.161 29.6267 18.1146 29.5429 18.0527 29.4713C17.9925 29.3997 17.9185 29.3444 17.8306 29.3053C17.7427 29.2646 17.6418 29.2443 17.5278 29.2443C17.3765 29.2443 17.2617 29.2646 17.1836 29.3053C17.1071 29.346 17.0282 29.4013 16.9468 29.4713Z" fill="#172755"/>
<rect x="22.1943" y="25.4943" width="10.9836" height="8.65375" fill="white"/>
<path d="M26.0317 27.589V31.1632H25.5801V28.153L24.6694 28.485V28.0773L25.9609 27.589H26.0317ZM29.0933 27.6036H29.1323V27.9869H29.0933C28.854 27.9869 28.6538 28.026 28.4927 28.1041C28.3315 28.1806 28.2038 28.284 28.1094 28.4142C28.015 28.5428 27.9466 28.6876 27.9043 28.8488C27.8636 29.0099 27.8433 29.1735 27.8433 29.3395V29.8619C27.8433 30.0198 27.862 30.1598 27.8994 30.2819C27.9368 30.4023 27.9881 30.504 28.0532 30.587C28.1183 30.67 28.1916 30.7327 28.2729 30.775C28.356 30.8173 28.4422 30.8385 28.5317 30.8385C28.6359 30.8385 28.7287 30.819 28.8101 30.7799C28.8914 30.7392 28.9598 30.6831 29.0151 30.6115C29.0721 30.5382 29.1152 30.4519 29.1445 30.3527C29.1738 30.2534 29.1885 30.1443 29.1885 30.0255C29.1885 29.9197 29.1755 29.818 29.1494 29.7203C29.1234 29.6211 29.0835 29.5332 29.0298 29.4567C28.9761 29.3785 28.9085 29.3175 28.8271 29.2736C28.7474 29.228 28.6522 29.2052 28.5415 29.2052C28.4162 29.2052 28.299 29.2361 28.1899 29.298C28.0825 29.3582 27.9938 29.4379 27.9238 29.5372C27.8555 29.6349 27.8164 29.7415 27.8066 29.8571L27.5674 29.8546C27.5902 29.6723 27.6325 29.5169 27.6943 29.3883C27.7578 29.2581 27.8359 29.1523 27.9287 29.0709C28.0231 28.9879 28.1281 28.9277 28.2437 28.8903C28.3608 28.8512 28.4845 28.8317 28.6147 28.8317C28.7922 28.8317 28.9451 28.865 29.0737 28.9318C29.2023 28.9985 29.3081 29.088 29.3911 29.2003C29.4741 29.311 29.5352 29.4363 29.5742 29.5763C29.6149 29.7146 29.6353 29.8571 29.6353 30.0035C29.6353 30.1712 29.6117 30.3282 29.5645 30.4747C29.5173 30.6212 29.4465 30.7498 29.3521 30.8605C29.2593 30.9712 29.1445 31.0574 29.0078 31.1193C28.8711 31.1811 28.7124 31.212 28.5317 31.212C28.3397 31.212 28.172 31.173 28.0288 31.0948C27.8856 31.0151 27.7668 30.9093 27.6724 30.7775C27.578 30.6456 27.5072 30.4991 27.46 30.338C27.4128 30.1769 27.3892 30.0133 27.3892 29.8473V29.6349C27.3892 29.3842 27.4144 29.1385 27.4648 28.8976C27.5153 28.6567 27.6024 28.4386 27.7261 28.2433C27.8514 28.048 28.0247 27.8925 28.2461 27.777C28.4674 27.6614 28.7498 27.6036 29.0933 27.6036Z" fill="#172755"/>
<rect x="33.1777" y="25.4943" width="10.9836" height="8.65375" fill="white"/>
<path d="M37.0151 27.589V31.1632H36.5635V28.153L35.6528 28.485V28.0773L36.9443 27.589H37.0151ZM40.6406 27.6085V27.8624L39.1685 31.1632H38.6924L40.1621 27.9796H38.2383V27.6085H40.6406Z" fill="#172755"/>
<rect x="44.1616" y="25.4943" width="10.9836" height="8.65375" fill="white"/>
<circle cx="49.5704" cy="29.738" r="3.24516" fill="#EF2A82"/>
<path d="M47.999 27.589V31.1632H47.5474V28.153L46.6367 28.485V28.0773L47.9282 27.589H47.999ZM51.5684 30.2013C51.5684 30.4178 51.5179 30.6017 51.417 30.7531C51.3177 30.9028 51.1826 31.0167 51.0117 31.0948C50.8424 31.173 50.6512 31.212 50.438 31.212C50.2248 31.212 50.0327 31.173 49.8618 31.0948C49.6909 31.0167 49.5558 30.9028 49.4565 30.7531C49.3573 30.6017 49.3076 30.4178 49.3076 30.2013C49.3076 30.0597 49.3345 29.9303 49.3882 29.8131C49.4435 29.6943 49.5208 29.5909 49.6201 29.5031C49.721 29.4152 49.8398 29.3476 49.9766 29.3004C50.1149 29.2516 50.2671 29.2272 50.4331 29.2272C50.6512 29.2272 50.8457 29.2695 51.0166 29.3541C51.1875 29.4371 51.3218 29.5519 51.4194 29.6984C51.5187 29.8448 51.5684 30.0125 51.5684 30.2013ZM51.1143 30.1915C51.1143 30.0597 51.0858 29.9433 51.0288 29.8424C50.9718 29.7399 50.8921 29.6601 50.7896 29.6031C50.687 29.5462 50.5682 29.5177 50.4331 29.5177C50.2948 29.5177 50.1751 29.5462 50.0742 29.6031C49.9749 29.6601 49.8976 29.7399 49.8423 29.8424C49.7869 29.9433 49.7593 30.0597 49.7593 30.1915C49.7593 30.3282 49.7861 30.4454 49.8398 30.5431C49.8952 30.6391 49.9733 30.7132 50.0742 30.7653C50.1768 30.8157 50.298 30.8409 50.438 30.8409C50.578 30.8409 50.6984 30.8157 50.7993 30.7653C50.9002 30.7132 50.9775 30.6391 51.0312 30.5431C51.0866 30.4454 51.1143 30.3282 51.1143 30.1915ZM51.4854 28.5338C51.4854 28.7063 51.4398 28.8618 51.3486 29.0001C51.2575 29.1385 51.133 29.2475 50.9751 29.3273C50.8172 29.407 50.6382 29.4469 50.438 29.4469C50.2345 29.4469 50.0531 29.407 49.8936 29.3273C49.7357 29.2475 49.612 29.1385 49.5225 29.0001C49.4329 28.8618 49.3882 28.7063 49.3882 28.5338C49.3882 28.3271 49.4329 28.1513 49.5225 28.0065C49.6136 27.8616 49.7381 27.7509 49.896 27.6744C50.0539 27.5979 50.2337 27.5597 50.4355 27.5597C50.639 27.5597 50.8197 27.5979 50.9775 27.6744C51.1354 27.7509 51.2591 27.8616 51.3486 28.0065C51.4398 28.1513 51.4854 28.3271 51.4854 28.5338ZM51.0337 28.5411C51.0337 28.4223 51.0085 28.3173 50.958 28.2262C50.9076 28.1351 50.8376 28.0634 50.748 28.0114C50.6585 27.9576 50.5544 27.9308 50.4355 27.9308C50.3167 27.9308 50.2126 27.956 50.123 28.0065C50.0352 28.0553 49.966 28.1253 49.9155 28.2164C49.8667 28.3076 49.8423 28.4158 49.8423 28.5411C49.8423 28.6632 49.8667 28.7698 49.9155 28.861C49.966 28.9521 50.036 29.0229 50.1255 29.0734C50.215 29.1238 50.3192 29.149 50.438 29.149C50.5568 29.149 50.6602 29.1238 50.748 29.0734C50.8376 29.0229 50.9076 28.9521 50.958 28.861C51.0085 28.7698 51.0337 28.6632 51.0337 28.5411Z" fill="#EEEEF7"/>
<rect x="55.1445" y="25.4943" width="10.9836" height="8.65375" fill="white"/>
<path d="M58.9819 27.589V31.1632H58.5303V28.153L57.6196 28.485V28.0773L58.9111 27.589H58.9819ZM60.7593 30.7848H60.8057C61.0661 30.7848 61.2777 30.7482 61.4404 30.6749C61.6032 30.6017 61.7285 30.5032 61.8164 30.3795C61.9043 30.2558 61.9645 30.1167 61.9971 29.962C62.0296 29.8058 62.0459 29.6455 62.0459 29.4811V28.9366C62.0459 28.7755 62.0272 28.6323 61.9897 28.507C61.9539 28.3816 61.9035 28.2767 61.8384 28.192C61.7749 28.1074 61.7025 28.0431 61.6211 27.9991C61.5397 27.9552 61.4535 27.9332 61.3623 27.9332C61.2581 27.9332 61.1646 27.9544 61.0815 27.9967C61.0002 28.0374 60.931 28.0952 60.874 28.17C60.8187 28.2449 60.7764 28.3328 60.7471 28.4337C60.7178 28.5346 60.7031 28.6445 60.7031 28.7633C60.7031 28.8691 60.7161 28.9716 60.7422 29.0709C60.7682 29.1702 60.8081 29.2597 60.8618 29.3395C60.9155 29.4192 60.9823 29.4827 61.062 29.5299C61.1434 29.5755 61.2386 29.5983 61.3477 29.5983C61.4486 29.5983 61.543 29.5787 61.6309 29.5397C61.7204 29.499 61.7993 29.4445 61.8677 29.3761C61.9377 29.3061 61.993 29.2272 62.0337 29.1393C62.076 29.0514 62.1004 28.9594 62.1069 28.8634H62.3218C62.3218 28.9985 62.2949 29.132 62.2412 29.2638C62.1891 29.394 62.1159 29.5128 62.0215 29.6202C61.9271 29.7277 61.8164 29.8139 61.6895 29.879C61.5625 29.9425 61.4242 29.9742 61.2744 29.9742C61.0986 29.9742 60.9465 29.9401 60.8179 29.8717C60.6893 29.8033 60.5835 29.7122 60.5005 29.5983C60.4191 29.4843 60.3581 29.3574 60.3174 29.2174C60.2783 29.0758 60.2588 28.9326 60.2588 28.7877C60.2588 28.6184 60.2824 28.4598 60.3296 28.3116C60.3768 28.1635 60.4468 28.0333 60.5396 27.921C60.6323 27.8071 60.7471 27.7184 60.8838 27.6549C61.0221 27.5914 61.1816 27.5597 61.3623 27.5597C61.5658 27.5597 61.7391 27.6004 61.8823 27.6818C62.0256 27.7631 62.1419 27.8722 62.2314 28.0089C62.3226 28.1456 62.3893 28.2994 62.4316 28.4703C62.474 28.6412 62.4951 28.817 62.4951 28.9977V29.1613C62.4951 29.3452 62.4829 29.5323 62.4585 29.7228C62.4357 29.9116 62.391 30.0922 62.3242 30.2648C62.2591 30.4373 62.1639 30.5919 62.0386 30.7286C61.9132 30.8637 61.7497 30.9712 61.5479 31.0509C61.3477 31.129 61.1003 31.1681 60.8057 31.1681H60.7593V30.7848Z" fill="#172755"/>
<rect x="66.1289" y="25.4943" width="10.9836" height="8.65375" fill="white"/>
<path d="M70.8105 30.7921V31.1632H68.4839V30.8385L69.6484 29.5421C69.7917 29.3826 69.9023 29.2475 69.9805 29.1368C70.0602 29.0245 70.1156 28.9244 70.1465 28.8365C70.179 28.747 70.1953 28.6559 70.1953 28.5631C70.1953 28.4459 70.1709 28.3401 70.1221 28.2457C70.0749 28.1497 70.0049 28.0732 69.9121 28.0162C69.8193 27.9593 69.707 27.9308 69.5752 27.9308C69.4173 27.9308 69.2855 27.9617 69.1797 28.0236C69.0755 28.0838 68.9974 28.1684 68.9453 28.2775C68.8932 28.3865 68.8672 28.5118 68.8672 28.6534H68.4155C68.4155 28.4532 68.4595 28.2701 68.5474 28.1041C68.6353 27.9381 68.7655 27.8063 68.938 27.7086C69.1105 27.6093 69.3229 27.5597 69.5752 27.5597C69.7998 27.5597 69.9919 27.5996 70.1514 27.6793C70.3109 27.7574 70.4329 27.8681 70.5176 28.0114C70.6038 28.153 70.647 28.319 70.647 28.5094C70.647 28.6136 70.6291 28.7194 70.5933 28.8268C70.5591 28.9326 70.5111 29.0384 70.4492 29.1442C70.389 29.25 70.3182 29.3541 70.2368 29.4567C70.1571 29.5592 70.0716 29.6601 69.9805 29.7594L69.0283 30.7921H70.8105ZM73.5254 29.1027V29.6447C73.5254 29.936 73.4993 30.1818 73.4473 30.382C73.3952 30.5822 73.3203 30.7433 73.2227 30.8654C73.125 30.9874 73.007 31.0761 72.8687 31.1315C72.7319 31.1852 72.5773 31.212 72.4048 31.212C72.2681 31.212 72.1419 31.1949 72.0264 31.1608C71.9108 31.1266 71.8066 31.0721 71.7139 30.9972C71.6227 30.9207 71.5446 30.8214 71.4795 30.6993C71.4144 30.5773 71.3647 30.4292 71.3306 30.255C71.2964 30.0809 71.2793 29.8774 71.2793 29.6447V29.1027C71.2793 28.8113 71.3053 28.5672 71.3574 28.3702C71.4111 28.1733 71.4868 28.0154 71.5845 27.8966C71.6821 27.7762 71.7993 27.6899 71.936 27.6378C72.0744 27.5857 72.229 27.5597 72.3999 27.5597C72.5382 27.5597 72.6652 27.5768 72.7808 27.611C72.8979 27.6435 73.0021 27.6964 73.0933 27.7697C73.1844 27.8413 73.2617 27.9373 73.3252 28.0577C73.3903 28.1766 73.4399 28.3222 73.4741 28.4948C73.5083 28.6673 73.5254 28.8699 73.5254 29.1027ZM73.0713 29.7179V29.027C73.0713 28.8675 73.0615 28.7275 73.042 28.6071C73.0241 28.485 72.9972 28.3808 72.9614 28.2946C72.9256 28.2083 72.88 28.1383 72.8247 28.0846C72.771 28.0309 72.7083 27.9918 72.6367 27.9674C72.5667 27.9414 72.4878 27.9283 72.3999 27.9283C72.2925 27.9283 72.1973 27.9487 72.1143 27.9894C72.0312 28.0284 71.9613 28.0911 71.9043 28.1774C71.849 28.2636 71.8066 28.3767 71.7773 28.5167C71.748 28.6567 71.7334 28.8268 71.7334 29.027V29.7179C71.7334 29.8774 71.7424 30.0182 71.7603 30.1403C71.7798 30.2623 71.8083 30.3681 71.8457 30.4576C71.8831 30.5455 71.9287 30.618 71.9824 30.6749C72.0361 30.7319 72.098 30.7742 72.168 30.8019C72.2396 30.8279 72.3185 30.8409 72.4048 30.8409C72.5155 30.8409 72.6123 30.8198 72.6953 30.7775C72.7783 30.7351 72.8475 30.6692 72.9028 30.5797C72.9598 30.4886 73.0021 30.3722 73.0298 30.2306C73.0575 30.0874 73.0713 29.9165 73.0713 29.7179Z" fill="#172755"/>
<rect x="0.227539" y="34.1481" width="10.9836" height="8.65375" fill="white"/>
<path d="M4.90967 39.4458V39.8169H2.58301V39.4922L3.74756 38.1958C3.89079 38.0363 4.00146 37.9012 4.07959 37.7905C4.15934 37.6782 4.21468 37.5781 4.24561 37.4902C4.27816 37.4007 4.29443 37.3096 4.29443 37.2168C4.29443 37.0996 4.27002 36.9938 4.22119 36.8994C4.17399 36.8034 4.104 36.7269 4.01123 36.6699C3.91846 36.613 3.80615 36.5845 3.67432 36.5845C3.51644 36.5845 3.3846 36.6154 3.27881 36.6772C3.17464 36.7375 3.09652 36.8221 3.04443 36.9312C2.99235 37.0402 2.96631 37.1655 2.96631 37.3071H2.51465C2.51465 37.1069 2.55859 36.9238 2.64648 36.7578C2.73438 36.5918 2.86458 36.46 3.03711 36.3623C3.20964 36.263 3.42204 36.2134 3.67432 36.2134C3.89893 36.2134 4.09098 36.2533 4.25049 36.333C4.40999 36.4111 4.53206 36.5218 4.6167 36.665C4.70296 36.8066 4.74609 36.9727 4.74609 37.1631C4.74609 37.2673 4.72819 37.373 4.69238 37.4805C4.6582 37.5863 4.61019 37.6921 4.54834 37.7979C4.48812 37.9036 4.41732 38.0078 4.33594 38.1104C4.25618 38.2129 4.17074 38.3138 4.07959 38.4131L3.12744 39.4458H4.90967ZM6.87744 36.2427V39.8169H6.42578V36.8066L5.51514 37.1387V36.731L6.80664 36.2427H6.87744Z" fill="#172755"/>
<rect x="11.21" y="34.1481" width="10.9836" height="8.65375" fill="white"/>
<path d="M15.8921 39.4458V39.8169H13.5654V39.4922L14.73 38.1958C14.8732 38.0363 14.9839 37.9012 15.062 37.7905C15.1418 37.6782 15.1971 37.5781 15.228 37.4902C15.2606 37.4007 15.2769 37.3096 15.2769 37.2168C15.2769 37.0996 15.2524 36.9938 15.2036 36.8994C15.1564 36.8034 15.0864 36.7269 14.9937 36.6699C14.9009 36.613 14.7886 36.5845 14.6567 36.5845C14.4989 36.5845 14.367 36.6154 14.2612 36.6772C14.1571 36.7375 14.0789 36.8221 14.0269 36.9312C13.9748 37.0402 13.9487 37.1655 13.9487 37.3071H13.4971C13.4971 37.1069 13.541 36.9238 13.6289 36.7578C13.7168 36.5918 13.847 36.46 14.0195 36.3623C14.1921 36.263 14.4045 36.2134 14.6567 36.2134C14.8813 36.2134 15.0734 36.2533 15.2329 36.333C15.3924 36.4111 15.5145 36.5218 15.5991 36.665C15.6854 36.8066 15.7285 36.9727 15.7285 37.1631C15.7285 37.2673 15.7106 37.373 15.6748 37.4805C15.6406 37.5863 15.5926 37.6921 15.5308 37.7979C15.4705 37.9036 15.3997 38.0078 15.3184 38.1104C15.2386 38.2129 15.1532 38.3138 15.062 38.4131L14.1099 39.4458H15.8921ZM18.7046 39.4458V39.8169H16.3779V39.4922L17.5425 38.1958C17.6857 38.0363 17.7964 37.9012 17.8745 37.7905C17.9543 37.6782 18.0096 37.5781 18.0405 37.4902C18.0731 37.4007 18.0894 37.3096 18.0894 37.2168C18.0894 37.0996 18.0649 36.9938 18.0161 36.8994C17.9689 36.8034 17.8989 36.7269 17.8062 36.6699C17.7134 36.613 17.6011 36.5845 17.4692 36.5845C17.3114 36.5845 17.1795 36.6154 17.0737 36.6772C16.9696 36.7375 16.8914 36.8221 16.8394 36.9312C16.7873 37.0402 16.7612 37.1655 16.7612 37.3071H16.3096C16.3096 37.1069 16.3535 36.9238 16.4414 36.7578C16.5293 36.5918 16.6595 36.46 16.832 36.3623C17.0046 36.263 17.217 36.2134 17.4692 36.2134C17.6938 36.2134 17.8859 36.2533 18.0454 36.333C18.2049 36.4111 18.327 36.5218 18.4116 36.665C18.4979 36.8066 18.541 36.9727 18.541 37.1631C18.541 37.2673 18.5231 37.373 18.4873 37.4805C18.4531 37.5863 18.4051 37.6921 18.3433 37.7979C18.283 37.9036 18.2122 38.0078 18.1309 38.1104C18.0511 38.2129 17.9657 38.3138 17.8745 38.4131L16.9224 39.4458H18.7046Z" fill="#172755"/>
<rect x="22.1943" y="34.1481" width="10.9836" height="8.65375" fill="white"/>
<path d="M26.8765 39.4458V39.8169H24.5498V39.4922L25.7144 38.1958C25.8576 38.0363 25.9683 37.9012 26.0464 37.7905C26.1261 37.6782 26.1815 37.5781 26.2124 37.4902C26.245 37.4007 26.2612 37.3096 26.2612 37.2168C26.2612 37.0996 26.2368 36.9938 26.188 36.8994C26.1408 36.8034 26.0708 36.7269 25.978 36.6699C25.8853 36.613 25.7729 36.5845 25.6411 36.5845C25.4832 36.5845 25.3514 36.6154 25.2456 36.6772C25.1414 36.7375 25.0633 36.8221 25.0112 36.9312C24.9591 37.0402 24.9331 37.1655 24.9331 37.3071H24.4814C24.4814 37.1069 24.5254 36.9238 24.6133 36.7578C24.7012 36.5918 24.8314 36.46 25.0039 36.3623C25.1764 36.263 25.3888 36.2134 25.6411 36.2134C25.8657 36.2134 26.0578 36.2533 26.2173 36.333C26.3768 36.4111 26.4989 36.5218 26.5835 36.665C26.6698 36.8066 26.7129 36.9727 26.7129 37.1631C26.7129 37.2673 26.695 37.373 26.6592 37.4805C26.625 37.5863 26.577 37.6921 26.5151 37.7979C26.4549 37.9036 26.3841 38.0078 26.3027 38.1104C26.223 38.2129 26.1375 38.3138 26.0464 38.4131L25.0942 39.4458H26.8765ZM28.019 37.8174H28.3413C28.4992 37.8174 28.6294 37.7913 28.7319 37.7393C28.8361 37.6855 28.9134 37.6131 28.9639 37.522C29.016 37.4292 29.042 37.325 29.042 37.2095C29.042 37.0728 29.0192 36.958 28.9736 36.8652C28.9281 36.7725 28.8597 36.7025 28.7686 36.6553C28.6774 36.6081 28.5618 36.5845 28.4219 36.5845C28.2949 36.5845 28.1826 36.6097 28.085 36.6602C27.9889 36.709 27.9132 36.779 27.8579 36.8701C27.8042 36.9613 27.7773 37.0687 27.7773 37.1924H27.3257C27.3257 37.0117 27.3713 36.8473 27.4624 36.6992C27.5535 36.5511 27.6813 36.4331 27.8457 36.3452C28.0117 36.2573 28.2038 36.2134 28.4219 36.2134C28.6367 36.2134 28.8247 36.2516 28.9858 36.3281C29.147 36.403 29.2723 36.5153 29.3618 36.665C29.4513 36.8132 29.4961 36.9979 29.4961 37.2192C29.4961 37.3088 29.4749 37.4048 29.4326 37.5073C29.3919 37.6082 29.3276 37.7026 29.2397 37.7905C29.1535 37.8784 29.0412 37.9508 28.9028 38.0078C28.7645 38.0632 28.5985 38.0908 28.4048 38.0908H28.019V37.8174ZM28.019 38.1885V37.9175H28.4048C28.631 37.9175 28.8182 37.9443 28.9663 37.998C29.1144 38.0518 29.2308 38.1234 29.3154 38.2129C29.4017 38.3024 29.4619 38.4009 29.4961 38.5083C29.5319 38.6141 29.5498 38.7199 29.5498 38.8257C29.5498 38.9917 29.5213 39.139 29.4644 39.2676C29.409 39.3962 29.3301 39.5052 29.2275 39.5947C29.1266 39.6842 29.0078 39.7518 28.8711 39.7974C28.7344 39.8429 28.5854 39.8657 28.4243 39.8657C28.2697 39.8657 28.124 39.8438 27.9873 39.7998C27.8522 39.7559 27.7326 39.6924 27.6284 39.6094C27.5243 39.5247 27.4429 39.4214 27.3843 39.2993C27.3257 39.1756 27.2964 39.0348 27.2964 38.877H27.748C27.748 39.0007 27.7749 39.1089 27.8286 39.2017C27.884 39.2944 27.9621 39.3669 28.063 39.4189C28.1655 39.4694 28.286 39.4946 28.4243 39.4946C28.5627 39.4946 28.6815 39.471 28.7808 39.4238C28.8817 39.375 28.959 39.3018 29.0127 39.2041C29.068 39.1064 29.0957 38.9836 29.0957 38.8354C29.0957 38.6873 29.0648 38.5661 29.0029 38.4717C28.9411 38.3757 28.8532 38.3049 28.7393 38.2593C28.627 38.2121 28.4943 38.1885 28.3413 38.1885H28.019Z" fill="#172755"/>
<rect x="33.1777" y="34.1481" width="10.9836" height="8.65375" fill="white"/>
<path d="M37.8599 39.4458V39.8169H35.5332V39.4922L36.6978 38.1958C36.841 38.0363 36.9517 37.9012 37.0298 37.7905C37.1095 37.6782 37.1649 37.5781 37.1958 37.4902C37.2284 37.4007 37.2446 37.3096 37.2446 37.2168C37.2446 37.0996 37.2202 36.9938 37.1714 36.8994C37.1242 36.8034 37.0542 36.7269 36.9614 36.6699C36.8687 36.613 36.7563 36.5845 36.6245 36.5845C36.4666 36.5845 36.3348 36.6154 36.229 36.6772C36.1248 36.7375 36.0467 36.8221 35.9946 36.9312C35.9425 37.0402 35.9165 37.1655 35.9165 37.3071H35.4648C35.4648 37.1069 35.5088 36.9238 35.5967 36.7578C35.6846 36.5918 35.8148 36.46 35.9873 36.3623C36.1598 36.263 36.3722 36.2134 36.6245 36.2134C36.8491 36.2134 37.0412 36.2533 37.2007 36.333C37.3602 36.4111 37.4823 36.5218 37.5669 36.665C37.6532 36.8066 37.6963 36.9727 37.6963 37.1631C37.6963 37.2673 37.6784 37.373 37.6426 37.4805C37.6084 37.5863 37.5604 37.6921 37.4985 37.7979C37.4383 37.9036 37.3675 38.0078 37.2861 38.1104C37.2064 38.2129 37.1209 38.3138 37.0298 38.4131L36.0776 39.4458H37.8599ZM40.7456 38.6206V38.9917H38.1772V38.7256L39.769 36.2622H40.1377L39.7422 36.9751L38.6899 38.6206H40.7456ZM40.25 36.2622V39.8169H39.7983V36.2622H40.25Z" fill="#172755"/>
<rect x="44.1616" y="34.1481" width="10.9836" height="8.65375" fill="white"/>
<path d="M48.8438 39.4458V39.8169H46.5171V39.4922L47.6816 38.1958C47.8249 38.0363 47.9355 37.9012 48.0137 37.7905C48.0934 37.6782 48.1488 37.5781 48.1797 37.4902C48.2122 37.4007 48.2285 37.3096 48.2285 37.2168C48.2285 37.0996 48.2041 36.9938 48.1553 36.8994C48.1081 36.8034 48.0381 36.7269 47.9453 36.6699C47.8525 36.613 47.7402 36.5845 47.6084 36.5845C47.4505 36.5845 47.3187 36.6154 47.2129 36.6772C47.1087 36.7375 47.0306 36.8221 46.9785 36.9312C46.9264 37.0402 46.9004 37.1655 46.9004 37.3071H46.4487C46.4487 37.1069 46.4927 36.9238 46.5806 36.7578C46.6685 36.5918 46.7987 36.46 46.9712 36.3623C47.1437 36.263 47.3561 36.2134 47.6084 36.2134C47.833 36.2134 48.0251 36.2533 48.1846 36.333C48.3441 36.4111 48.4661 36.5218 48.5508 36.665C48.637 36.8066 48.6802 36.9727 48.6802 37.1631C48.6802 37.2673 48.6623 37.373 48.6265 37.4805C48.5923 37.5863 48.5443 37.6921 48.4824 37.7979C48.4222 37.9036 48.3514 38.0078 48.27 38.1104C48.1903 38.2129 48.1048 38.3138 48.0137 38.4131L47.0615 39.4458H48.8438ZM49.8984 38.125L49.5371 38.0322L49.7153 36.2622H51.5391V36.6797H50.0986L49.9912 37.6465C50.0563 37.609 50.1385 37.5741 50.2378 37.5415C50.3387 37.509 50.4543 37.4927 50.5845 37.4927C50.7489 37.4927 50.8962 37.5212 51.0264 37.5781C51.1566 37.6335 51.2673 37.7132 51.3584 37.8174C51.4512 37.9215 51.522 38.0469 51.5708 38.1934C51.6196 38.3398 51.644 38.5034 51.644 38.6841C51.644 38.855 51.6204 39.012 51.5732 39.1553C51.5277 39.2985 51.4585 39.4238 51.3657 39.5312C51.2729 39.637 51.1558 39.7192 51.0142 39.7778C50.8742 39.8364 50.709 39.8657 50.5186 39.8657C50.3753 39.8657 50.2394 39.8462 50.1108 39.8071C49.9839 39.7664 49.87 39.7054 49.769 39.624C49.6698 39.541 49.5884 39.4385 49.5249 39.3164C49.4631 39.1927 49.424 39.0479 49.4077 38.8818H49.8374C49.8569 39.0153 49.896 39.1276 49.9546 39.2188C50.0132 39.3099 50.0897 39.3791 50.1841 39.4263C50.2801 39.4718 50.3916 39.4946 50.5186 39.4946C50.626 39.4946 50.7212 39.4759 50.8042 39.4385C50.8872 39.401 50.9572 39.3473 51.0142 39.2773C51.0711 39.2074 51.1143 39.1227 51.1436 39.0234C51.1745 38.9242 51.1899 38.8127 51.1899 38.689C51.1899 38.5767 51.1745 38.4725 51.1436 38.3765C51.1126 38.2804 51.0662 38.1966 51.0044 38.125C50.9442 38.0534 50.8701 37.998 50.7822 37.959C50.6943 37.9183 50.5934 37.8979 50.4795 37.8979C50.3281 37.8979 50.2134 37.9183 50.1353 37.959C50.0588 37.9997 49.9798 38.055 49.8984 38.125Z" fill="#172755"/>
<rect x="55.1445" y="34.1481" width="10.9836" height="8.65375" fill="white"/>
<path d="M59.8267 39.4458V39.8169H57.5V39.4922L58.6646 38.1958C58.8078 38.0363 58.9185 37.9012 58.9966 37.7905C59.0763 37.6782 59.1317 37.5781 59.1626 37.4902C59.1951 37.4007 59.2114 37.3096 59.2114 37.2168C59.2114 37.0996 59.187 36.9938 59.1382 36.8994C59.091 36.8034 59.021 36.7269 58.9282 36.6699C58.8354 36.613 58.7231 36.5845 58.5913 36.5845C58.4334 36.5845 58.3016 36.6154 58.1958 36.6772C58.0916 36.7375 58.0135 36.8221 57.9614 36.9312C57.9093 37.0402 57.8833 37.1655 57.8833 37.3071H57.4316C57.4316 37.1069 57.4756 36.9238 57.5635 36.7578C57.6514 36.5918 57.7816 36.46 57.9541 36.3623C58.1266 36.263 58.339 36.2134 58.5913 36.2134C58.8159 36.2134 59.008 36.2533 59.1675 36.333C59.327 36.4111 59.4491 36.5218 59.5337 36.665C59.62 36.8066 59.6631 36.9727 59.6631 37.1631C59.6631 37.2673 59.6452 37.373 59.6094 37.4805C59.5752 37.5863 59.5272 37.6921 59.4653 37.7979C59.4051 37.9036 59.3343 38.0078 59.2529 38.1104C59.1732 38.2129 59.0877 38.3138 58.9966 38.4131L58.0444 39.4458H59.8267ZM62.0435 36.2573H62.0825V36.6406H62.0435C61.8042 36.6406 61.604 36.6797 61.4429 36.7578C61.2817 36.8343 61.154 36.9377 61.0596 37.0679C60.9652 37.1965 60.8968 37.3413 60.8545 37.5024C60.8138 37.6636 60.7935 37.8271 60.7935 37.9932V38.5156C60.7935 38.6735 60.8122 38.8135 60.8496 38.9355C60.887 39.056 60.9383 39.1577 61.0034 39.2407C61.0685 39.3237 61.1418 39.3864 61.2231 39.4287C61.3062 39.471 61.3924 39.4922 61.4819 39.4922C61.5861 39.4922 61.6789 39.4727 61.7603 39.4336C61.8416 39.3929 61.91 39.3368 61.9653 39.2651C62.0223 39.1919 62.0654 39.1056 62.0947 39.0063C62.124 38.9071 62.1387 38.798 62.1387 38.6792C62.1387 38.5734 62.1257 38.4717 62.0996 38.374C62.0736 38.2747 62.0337 38.1868 61.98 38.1104C61.9263 38.0322 61.8587 37.9712 61.7773 37.9272C61.6976 37.8817 61.6024 37.8589 61.4917 37.8589C61.3664 37.8589 61.2492 37.8898 61.1401 37.9517C61.0327 38.0119 60.944 38.0916 60.874 38.1909C60.8057 38.2886 60.7666 38.3952 60.7568 38.5107L60.5176 38.5083C60.5404 38.326 60.5827 38.1706 60.6445 38.042C60.708 37.9118 60.7861 37.806 60.8789 37.7246C60.9733 37.6416 61.0783 37.5814 61.1938 37.5439C61.311 37.5049 61.4347 37.4854 61.5649 37.4854C61.7424 37.4854 61.8953 37.5187 62.0239 37.5854C62.1525 37.6522 62.2583 37.7417 62.3413 37.854C62.4243 37.9647 62.4854 38.09 62.5244 38.23C62.5651 38.3683 62.5854 38.5107 62.5854 38.6572C62.5854 38.8249 62.5618 38.9819 62.5146 39.1284C62.4674 39.2749 62.3966 39.4035 62.3022 39.5142C62.2095 39.6248 62.0947 39.7111 61.958 39.7729C61.8213 39.8348 61.6626 39.8657 61.4819 39.8657C61.2899 39.8657 61.1222 39.8267 60.979 39.7485C60.8358 39.6688 60.717 39.563 60.6226 39.4312C60.5282 39.2993 60.4574 39.1528 60.4102 38.9917C60.363 38.8306 60.3394 38.667 60.3394 38.501V38.2886C60.3394 38.0379 60.3646 37.7922 60.415 37.5513C60.4655 37.3104 60.5526 37.0923 60.6763 36.897C60.8016 36.7017 60.9749 36.5462 61.1963 36.4307C61.4176 36.3151 61.7 36.2573 62.0435 36.2573Z" fill="#172755"/>
<rect x="66.1289" y="34.1481" width="10.9836" height="8.65375" fill="white"/>
<path d="M70.8105 39.4458V39.8169H68.4839V39.4922L69.6484 38.1958C69.7917 38.0363 69.9023 37.9012 69.9805 37.7905C70.0602 37.6782 70.1156 37.5781 70.1465 37.4902C70.179 37.4007 70.1953 37.3096 70.1953 37.2168C70.1953 37.0996 70.1709 36.9938 70.1221 36.8994C70.0749 36.8034 70.0049 36.7269 69.9121 36.6699C69.8193 36.613 69.707 36.5845 69.5752 36.5845C69.4173 36.5845 69.2855 36.6154 69.1797 36.6772C69.0755 36.7375 68.9974 36.8221 68.9453 36.9312C68.8932 37.0402 68.8672 37.1655 68.8672 37.3071H68.4155C68.4155 37.1069 68.4595 36.9238 68.5474 36.7578C68.6353 36.5918 68.7655 36.46 68.938 36.3623C69.1105 36.263 69.3229 36.2134 69.5752 36.2134C69.7998 36.2134 69.9919 36.2533 70.1514 36.333C70.3109 36.4111 70.4329 36.5218 70.5176 36.665C70.6038 36.8066 70.647 36.9727 70.647 37.1631C70.647 37.2673 70.6291 37.373 70.5933 37.4805C70.5591 37.5863 70.5111 37.6921 70.4492 37.7979C70.389 37.9036 70.3182 38.0078 70.2368 38.1104C70.1571 38.2129 70.0716 38.3138 69.9805 38.4131L69.0283 39.4458H70.8105ZM73.5913 36.2622V36.5161L72.1191 39.8169H71.6431L73.1128 36.6333H71.189V36.2622H73.5913Z" fill="#172755"/>
<rect x="0.227539" y="42.8018" width="10.9836" height="8.65375" fill="white"/>
<path d="M4.90967 48.0996V48.4707H2.58301V48.146L3.74756 46.8496C3.89079 46.6901 4.00146 46.555 4.07959 46.4443C4.15934 46.332 4.21468 46.2319 4.24561 46.144C4.27816 46.0545 4.29443 45.9634 4.29443 45.8706C4.29443 45.7534 4.27002 45.6476 4.22119 45.5532C4.17399 45.4572 4.104 45.3807 4.01123 45.3237C3.91846 45.2668 3.80615 45.2383 3.67432 45.2383C3.51644 45.2383 3.3846 45.2692 3.27881 45.3311C3.17464 45.3913 3.09652 45.4759 3.04443 45.585C2.99235 45.694 2.96631 45.8193 2.96631 45.9609H2.51465C2.51465 45.7607 2.55859 45.5776 2.64648 45.4116C2.73438 45.2456 2.86458 45.1138 3.03711 45.0161C3.20964 44.9168 3.42204 44.8672 3.67432 44.8672C3.89893 44.8672 4.09098 44.9071 4.25049 44.9868C4.40999 45.0649 4.53206 45.1756 4.6167 45.3188C4.70296 45.4604 4.74609 45.6265 4.74609 45.8169C4.74609 45.9211 4.72819 46.0269 4.69238 46.1343C4.6582 46.2401 4.61019 46.3459 4.54834 46.4517C4.48812 46.5575 4.41732 46.6616 4.33594 46.7642C4.25618 46.8667 4.17074 46.9676 4.07959 47.0669L3.12744 48.0996H4.90967ZM7.63428 47.5088C7.63428 47.7253 7.58382 47.9092 7.48291 48.0605C7.38363 48.2103 7.24854 48.3242 7.07764 48.4023C6.90837 48.4805 6.71712 48.5195 6.50391 48.5195C6.29069 48.5195 6.09863 48.4805 5.92773 48.4023C5.75684 48.3242 5.62174 48.2103 5.52246 48.0605C5.42318 47.9092 5.37354 47.7253 5.37354 47.5088C5.37354 47.3672 5.40039 47.2378 5.4541 47.1206C5.50944 47.0018 5.58675 46.8984 5.68604 46.8105C5.78695 46.7227 5.90576 46.6551 6.04248 46.6079C6.18083 46.5591 6.33301 46.5347 6.49902 46.5347C6.71712 46.5347 6.91162 46.577 7.08252 46.6616C7.25342 46.7446 7.3877 46.8594 7.48535 47.0059C7.58464 47.1523 7.63428 47.32 7.63428 47.5088ZM7.18018 47.499C7.18018 47.3672 7.15169 47.2508 7.09473 47.1499C7.03776 47.0474 6.95801 46.9676 6.85547 46.9106C6.75293 46.8537 6.63411 46.8252 6.49902 46.8252C6.36068 46.8252 6.24105 46.8537 6.14014 46.9106C6.04085 46.9676 5.96354 47.0474 5.9082 47.1499C5.85286 47.2508 5.8252 47.3672 5.8252 47.499C5.8252 47.6357 5.85205 47.7529 5.90576 47.8506C5.9611 47.9466 6.03923 48.0207 6.14014 48.0728C6.24268 48.1232 6.36393 48.1484 6.50391 48.1484C6.64388 48.1484 6.76432 48.1232 6.86523 48.0728C6.96615 48.0207 7.04346 47.9466 7.09717 47.8506C7.15251 47.7529 7.18018 47.6357 7.18018 47.499ZM7.55127 45.8413C7.55127 46.0138 7.5057 46.1693 7.41455 46.3076C7.3234 46.446 7.19889 46.555 7.04102 46.6348C6.88314 46.7145 6.7041 46.7544 6.50391 46.7544C6.30046 46.7544 6.11898 46.7145 5.95947 46.6348C5.8016 46.555 5.6779 46.446 5.58838 46.3076C5.49886 46.1693 5.4541 46.0138 5.4541 45.8413C5.4541 45.6346 5.49886 45.4588 5.58838 45.314C5.67952 45.1691 5.80404 45.0584 5.96191 44.9819C6.11979 44.9054 6.29964 44.8672 6.50146 44.8672C6.70492 44.8672 6.88558 44.9054 7.04346 44.9819C7.20133 45.0584 7.32503 45.1691 7.41455 45.314C7.5057 45.4588 7.55127 45.6346 7.55127 45.8413ZM7.09961 45.8486C7.09961 45.7298 7.07438 45.6248 7.02393 45.5337C6.97347 45.4425 6.90348 45.3709 6.81396 45.3188C6.72445 45.2651 6.62028 45.2383 6.50146 45.2383C6.38265 45.2383 6.27848 45.2635 6.18896 45.314C6.10107 45.3628 6.0319 45.4328 5.98145 45.5239C5.93262 45.6151 5.9082 45.7233 5.9082 45.8486C5.9082 45.9707 5.93262 46.0773 5.98145 46.1685C6.0319 46.2596 6.10189 46.3304 6.19141 46.3809C6.28092 46.4313 6.38509 46.4565 6.50391 46.4565C6.62272 46.4565 6.72607 46.4313 6.81396 46.3809C6.90348 46.3304 6.97347 46.2596 7.02393 46.1685C7.07438 46.0773 7.09961 45.9707 7.09961 45.8486Z" fill="#172755"/>
<rect x="11.21" y="42.8018" width="10.9836" height="8.65375" fill="white"/>
<path d="M15.8921 48.0996V48.4707H13.5654V48.146L14.73 46.8496C14.8732 46.6901 14.9839 46.555 15.062 46.4443C15.1418 46.332 15.1971 46.2319 15.228 46.144C15.2606 46.0545 15.2769 45.9634 15.2769 45.8706C15.2769 45.7534 15.2524 45.6476 15.2036 45.5532C15.1564 45.4572 15.0864 45.3807 14.9937 45.3237C14.9009 45.2668 14.7886 45.2383 14.6567 45.2383C14.4989 45.2383 14.367 45.2692 14.2612 45.3311C14.1571 45.3913 14.0789 45.4759 14.0269 45.585C13.9748 45.694 13.9487 45.8193 13.9487 45.9609H13.4971C13.4971 45.7607 13.541 45.5776 13.6289 45.4116C13.7168 45.2456 13.847 45.1138 14.0195 45.0161C14.1921 44.9168 14.4045 44.8672 14.6567 44.8672C14.8813 44.8672 15.0734 44.9071 15.2329 44.9868C15.3924 45.0649 15.5145 45.1756 15.5991 45.3188C15.6854 45.4604 15.7285 45.6265 15.7285 45.8169C15.7285 45.9211 15.7106 46.0269 15.6748 46.1343C15.6406 46.2401 15.5926 46.3459 15.5308 46.4517C15.4705 46.5575 15.3997 46.6616 15.3184 46.7642C15.2386 46.8667 15.1532 46.9676 15.062 47.0669L14.1099 48.0996H15.8921ZM16.8247 48.0923H16.8711C17.1315 48.0923 17.3431 48.0557 17.5059 47.9824C17.6686 47.9092 17.7939 47.8107 17.8818 47.687C17.9697 47.5633 18.0299 47.4242 18.0625 47.2695C18.0951 47.1133 18.1113 46.953 18.1113 46.7886V46.2441C18.1113 46.083 18.0926 45.9398 18.0552 45.8145C18.0194 45.6891 17.9689 45.5841 17.9038 45.4995C17.8403 45.4149 17.7679 45.3506 17.6865 45.3066C17.6051 45.2627 17.5189 45.2407 17.4277 45.2407C17.3236 45.2407 17.23 45.2619 17.147 45.3042C17.0656 45.3449 16.9964 45.4027 16.9395 45.4775C16.8841 45.5524 16.8418 45.6403 16.8125 45.7412C16.7832 45.8421 16.7686 45.952 16.7686 46.0708C16.7686 46.1766 16.7816 46.2791 16.8076 46.3784C16.8337 46.4777 16.8735 46.5672 16.9272 46.647C16.981 46.7267 17.0477 46.7902 17.1274 46.8374C17.2088 46.883 17.304 46.9058 17.4131 46.9058C17.514 46.9058 17.6084 46.8862 17.6963 46.8472C17.7858 46.8065 17.8647 46.752 17.9331 46.6836C18.0031 46.6136 18.0584 46.5347 18.0991 46.4468C18.1414 46.3589 18.1659 46.2669 18.1724 46.1709H18.3872C18.3872 46.306 18.3604 46.4395 18.3066 46.5713C18.2546 46.7015 18.1813 46.8203 18.0869 46.9277C17.9925 47.0352 17.8818 47.1214 17.7549 47.1865C17.6279 47.25 17.4896 47.2817 17.3398 47.2817C17.1641 47.2817 17.0119 47.2476 16.8833 47.1792C16.7547 47.1108 16.6489 47.0197 16.5659 46.9058C16.4845 46.7918 16.4235 46.6649 16.3828 46.5249C16.3438 46.3833 16.3242 46.2401 16.3242 46.0952C16.3242 45.9259 16.3478 45.7673 16.395 45.6191C16.4422 45.471 16.5122 45.3408 16.605 45.2285C16.6978 45.1146 16.8125 45.0259 16.9492 44.9624C17.0876 44.8989 17.2471 44.8672 17.4277 44.8672C17.6312 44.8672 17.8045 44.9079 17.9478 44.9893C18.091 45.0706 18.2074 45.1797 18.2969 45.3164C18.388 45.4531 18.4548 45.6069 18.4971 45.7778C18.5394 45.9487 18.5605 46.1245 18.5605 46.3052V46.4688C18.5605 46.6527 18.5483 46.8398 18.5239 47.0303C18.5011 47.2191 18.4564 47.3997 18.3896 47.5723C18.3245 47.7448 18.2293 47.8994 18.104 48.0361C17.9787 48.1712 17.8151 48.2786 17.6133 48.3584C17.4131 48.4365 17.1657 48.4756 16.8711 48.4756H16.8247V48.0923Z" fill="#172755"/>
<rect x="22.1943" y="42.8018" width="10.9836" height="8.65375" fill="white"/>
<path d="M25.2065 46.4712H25.5288C25.6867 46.4712 25.8169 46.4451 25.9194 46.3931C26.0236 46.3394 26.1009 46.2669 26.1514 46.1758C26.2035 46.083 26.2295 45.9788 26.2295 45.8633C26.2295 45.7266 26.2067 45.6118 26.1611 45.519C26.1156 45.4263 26.0472 45.3563 25.9561 45.3091C25.8649 45.2619 25.7493 45.2383 25.6094 45.2383C25.4824 45.2383 25.3701 45.2635 25.2725 45.314C25.1764 45.3628 25.1007 45.4328 25.0454 45.5239C24.9917 45.6151 24.9648 45.7225 24.9648 45.8462H24.5132C24.5132 45.6655 24.5588 45.5011 24.6499 45.353C24.741 45.2049 24.8688 45.0869 25.0332 44.999C25.1992 44.9111 25.3913 44.8672 25.6094 44.8672C25.8242 44.8672 26.0122 44.9054 26.1733 44.9819C26.3345 45.0568 26.4598 45.1691 26.5493 45.3188C26.6388 45.467 26.6836 45.6517 26.6836 45.873C26.6836 45.9626 26.6624 46.0586 26.6201 46.1611C26.5794 46.262 26.5151 46.3564 26.4272 46.4443C26.341 46.5322 26.2287 46.6047 26.0903 46.6616C25.952 46.717 25.786 46.7446 25.5923 46.7446H25.2065V46.4712ZM25.2065 46.8423V46.5713H25.5923C25.8185 46.5713 26.0057 46.5981 26.1538 46.6519C26.3019 46.7056 26.4183 46.7772 26.5029 46.8667C26.5892 46.9562 26.6494 47.0547 26.6836 47.1621C26.7194 47.2679 26.7373 47.3737 26.7373 47.4795C26.7373 47.6455 26.7088 47.7928 26.6519 47.9214C26.5965 48.05 26.5176 48.159 26.415 48.2485C26.3141 48.3381 26.1953 48.4056 26.0586 48.4512C25.9219 48.4967 25.7729 48.5195 25.6118 48.5195C25.4572 48.5195 25.3115 48.4976 25.1748 48.4536C25.0397 48.4097 24.9201 48.3462 24.8159 48.2632C24.7118 48.1785 24.6304 48.0752 24.5718 47.9531C24.5132 47.8294 24.4839 47.6886 24.4839 47.5308H24.9355C24.9355 47.6545 24.9624 47.7627 25.0161 47.8555C25.0715 47.9482 25.1496 48.0207 25.2505 48.0728C25.353 48.1232 25.4735 48.1484 25.6118 48.1484C25.7502 48.1484 25.869 48.1248 25.9683 48.0776C26.0692 48.0288 26.1465 47.9556 26.2002 47.8579C26.2555 47.7603 26.2832 47.6374 26.2832 47.4893C26.2832 47.3411 26.2523 47.2199 26.1904 47.1255C26.1286 47.0295 26.0407 46.9587 25.9268 46.9131C25.8145 46.8659 25.6818 46.8423 25.5288 46.8423H25.2065ZM29.5913 46.4102V46.9521C29.5913 47.2435 29.5653 47.4893 29.5132 47.6895C29.4611 47.8896 29.3862 48.0508 29.2886 48.1729C29.1909 48.2949 29.0729 48.3836 28.9346 48.439C28.7979 48.4927 28.6432 48.5195 28.4707 48.5195C28.334 48.5195 28.2078 48.5024 28.0923 48.4683C27.9767 48.4341 27.8726 48.3796 27.7798 48.3047C27.6886 48.2282 27.6105 48.1289 27.5454 48.0068C27.4803 47.8848 27.4307 47.7367 27.3965 47.5625C27.3623 47.3883 27.3452 47.1849 27.3452 46.9521V46.4102C27.3452 46.1188 27.3713 45.8747 27.4233 45.6777C27.4771 45.4808 27.5527 45.3229 27.6504 45.2041C27.748 45.0837 27.8652 44.9974 28.002 44.9453C28.1403 44.8932 28.2949 44.8672 28.4658 44.8672C28.6042 44.8672 28.7311 44.8843 28.8467 44.9185C28.9639 44.951 29.068 45.0039 29.1592 45.0771C29.2503 45.1488 29.3276 45.2448 29.3911 45.3652C29.4562 45.484 29.5059 45.6297 29.54 45.8022C29.5742 45.9748 29.5913 46.1774 29.5913 46.4102ZM29.1372 47.0254V46.3345C29.1372 46.175 29.1274 46.035 29.1079 45.9146C29.09 45.7925 29.0632 45.6883 29.0273 45.6021C28.9915 45.5158 28.946 45.4458 28.8906 45.3921C28.8369 45.3384 28.7743 45.2993 28.7026 45.2749C28.6326 45.2489 28.5537 45.2358 28.4658 45.2358C28.3584 45.2358 28.2632 45.2562 28.1802 45.2969C28.0972 45.3359 28.0272 45.3986 27.9702 45.4849C27.9149 45.5711 27.8726 45.6842 27.8433 45.8242C27.814 45.9642 27.7993 46.1343 27.7993 46.3345V47.0254C27.7993 47.1849 27.8083 47.3257 27.8262 47.4478C27.8457 47.5698 27.8742 47.6756 27.9116 47.7651C27.9491 47.853 27.9946 47.9255 28.0483 47.9824C28.1021 48.0394 28.1639 48.0817 28.2339 48.1094C28.3055 48.1354 28.3844 48.1484 28.4707 48.1484C28.5814 48.1484 28.6782 48.1273 28.7612 48.085C28.8442 48.0426 28.9134 47.9767 28.9688 47.8872C29.0257 47.7961 29.068 47.6797 29.0957 47.5381C29.1234 47.3949 29.1372 47.224 29.1372 47.0254Z" fill="#172755"/>
<rect x="33.1777" y="42.8018" width="10.9836" height="8.65375" fill="white"/>
<path d="M36.1899 46.4712H36.5122C36.6701 46.4712 36.8003 46.4451 36.9028 46.3931C37.007 46.3394 37.0843 46.2669 37.1348 46.1758C37.1868 46.083 37.2129 45.9788 37.2129 45.8633C37.2129 45.7266 37.1901 45.6118 37.1445 45.519C37.099 45.4263 37.0306 45.3563 36.9395 45.3091C36.8483 45.2619 36.7327 45.2383 36.5928 45.2383C36.4658 45.2383 36.3535 45.2635 36.2559 45.314C36.1598 45.3628 36.0841 45.4328 36.0288 45.5239C35.9751 45.6151 35.9482 45.7225 35.9482 45.8462H35.4966C35.4966 45.6655 35.5422 45.5011 35.6333 45.353C35.7244 45.2049 35.8522 45.0869 36.0166 44.999C36.1826 44.9111 36.3747 44.8672 36.5928 44.8672C36.8076 44.8672 36.9956 44.9054 37.1567 44.9819C37.3179 45.0568 37.4432 45.1691 37.5327 45.3188C37.6222 45.467 37.667 45.6517 37.667 45.873C37.667 45.9626 37.6458 46.0586 37.6035 46.1611C37.5628 46.262 37.4985 46.3564 37.4106 46.4443C37.3244 46.5322 37.2121 46.6047 37.0737 46.6616C36.9354 46.717 36.7694 46.7446 36.5757 46.7446H36.1899V46.4712ZM36.1899 46.8423V46.5713H36.5757C36.8019 46.5713 36.9891 46.5981 37.1372 46.6519C37.2853 46.7056 37.4017 46.7772 37.4863 46.8667C37.5726 46.9562 37.6328 47.0547 37.667 47.1621C37.7028 47.2679 37.7207 47.3737 37.7207 47.4795C37.7207 47.6455 37.6922 47.7928 37.6353 47.9214C37.5799 48.05 37.501 48.159 37.3984 48.2485C37.2975 48.3381 37.1787 48.4056 37.042 48.4512C36.9053 48.4967 36.7563 48.5195 36.5952 48.5195C36.4406 48.5195 36.2949 48.4976 36.1582 48.4536C36.0231 48.4097 35.9035 48.3462 35.7993 48.2632C35.6951 48.1785 35.6138 48.0752 35.5552 47.9531C35.4966 47.8294 35.4673 47.6886 35.4673 47.5308H35.9189C35.9189 47.6545 35.9458 47.7627 35.9995 47.8555C36.0549 47.9482 36.133 48.0207 36.2339 48.0728C36.3364 48.1232 36.4569 48.1484 36.5952 48.1484C36.7336 48.1484 36.8524 48.1248 36.9517 48.0776C37.0526 48.0288 37.1299 47.9556 37.1836 47.8579C37.2389 47.7603 37.2666 47.6374 37.2666 47.4893C37.2666 47.3411 37.2357 47.2199 37.1738 47.1255C37.112 47.0295 37.0241 46.9587 36.9102 46.9131C36.7979 46.8659 36.6652 46.8423 36.5122 46.8423H36.1899ZM39.8276 44.8965V48.4707H39.376V45.4604L38.4653 45.7925V45.3848L39.7568 44.8965H39.8276Z" fill="#172755"/>
<rect x="44.1616" y="42.8018" width="10.9836" height="8.65375" fill="white"/>
<rect x="55.1445" y="42.8018" width="10.9836" height="8.65375" fill="white"/>
<rect x="66.1289" y="42.8018" width="10.9836" height="8.65375" fill="white"/>
<path d="M3.33828 1.27824H3.52063L3.98575 2.43569L4.44991 1.27824H4.63323L4.05596 2.698H3.9136L3.33828 1.27824ZM3.2788 1.27824H3.43969L3.46602 2.14414V2.698H3.2788V1.27824ZM4.53084 1.27824H4.69173V2.698H4.50451V2.14414L4.53084 1.27824ZM6.11539 1.94327V2.03297C6.11539 2.13959 6.10206 2.23515 6.07541 2.31966C6.04876 2.40417 6.0104 2.476 5.96035 2.53516C5.91029 2.59431 5.85016 2.63949 5.77995 2.6707C5.71039 2.7019 5.63239 2.7175 5.54593 2.7175C5.46207 2.7175 5.38503 2.7019 5.31483 2.6707C5.24527 2.63949 5.18481 2.59431 5.13346 2.53516C5.08275 2.476 5.04342 2.40417 5.01547 2.31966C4.98751 2.23515 4.97354 2.13959 4.97354 2.03297V1.94327C4.97354 1.83665 4.98719 1.74142 5.01449 1.65756C5.04245 1.57305 5.08177 1.50122 5.13248 1.44206C5.18319 1.38225 5.24332 1.33675 5.31288 1.30555C5.38308 1.27434 5.46012 1.25874 5.54398 1.25874C5.63044 1.25874 5.70844 1.27434 5.778 1.30555C5.84821 1.33675 5.90834 1.38225 5.9584 1.44206C6.0091 1.50122 6.04778 1.57305 6.07443 1.65756C6.10174 1.74142 6.11539 1.83665 6.11539 1.94327ZM5.92914 2.03297V1.94131C5.92914 1.85681 5.92037 1.78205 5.90282 1.71704C5.88591 1.65203 5.86089 1.59743 5.82773 1.55322C5.79458 1.50902 5.75395 1.47554 5.70584 1.45279C5.65839 1.43003 5.60443 1.41866 5.54398 1.41866C5.48547 1.41866 5.43249 1.43003 5.38503 1.45279C5.33823 1.47554 5.29792 1.50902 5.26412 1.55322C5.23097 1.59743 5.20529 1.65203 5.18709 1.71704C5.16888 1.78205 5.15978 1.85681 5.15978 1.94131V2.03297C5.15978 2.11813 5.16888 2.19354 5.18709 2.2592C5.20529 2.32421 5.23129 2.37914 5.26509 2.42399C5.29955 2.4682 5.34018 2.50168 5.38698 2.52443C5.43444 2.54718 5.48742 2.55856 5.54593 2.55856C5.60703 2.55856 5.66131 2.54718 5.70877 2.52443C5.75622 2.50168 5.7962 2.4682 5.82871 2.42399C5.86186 2.37914 5.88689 2.32421 5.90379 2.2592C5.92069 2.19354 5.92914 2.11813 5.92914 2.03297ZM7.48931 1.27824V2.698H7.30014L6.58539 1.60295V2.698H6.39719V1.27824H6.58539L7.30307 2.37621V1.27824H7.48931Z" fill="#8794BA"/>
<path d="M15.2483 1.27824V2.698H15.063V1.27824H15.2483ZM15.7046 1.27824V1.43231H14.6076V1.27824H15.7046ZM16.7275 1.27824H16.9147V2.23872C16.9147 2.34533 16.891 2.43407 16.8436 2.50493C16.7961 2.57578 16.7331 2.62909 16.6544 2.66484C16.5764 2.69995 16.4916 2.7175 16.3999 2.7175C16.3037 2.7175 16.2166 2.69995 16.1386 2.66484C16.0612 2.62909 15.9998 2.57578 15.9543 2.50493C15.9094 2.43407 15.887 2.34533 15.887 2.23872V1.27824H16.0732V2.23872C16.0732 2.31283 16.0869 2.37394 16.1142 2.42204C16.1415 2.47015 16.1795 2.5059 16.2283 2.5293C16.2777 2.55271 16.3349 2.56441 16.3999 2.56441C16.4655 2.56441 16.5228 2.55271 16.5715 2.5293C16.6209 2.5059 16.6593 2.47015 16.6866 2.42204C16.7139 2.37394 16.7275 2.31283 16.7275 2.23872V1.27824ZM18.1122 2.54491V2.698H17.3604V2.54491H18.1122ZM17.3984 1.27824V2.698H17.2102V1.27824H17.3984ZM18.0127 1.88866V2.04175H17.3604V1.88866H18.0127ZM18.1024 1.27824V1.43231H17.3604V1.27824H18.1024Z" fill="#8794BA"/>
<path d="M25.782 2.26895L26.0638 1.27824H26.2003L26.1213 1.66341L25.8181 2.698H25.6825L25.782 2.26895ZM25.4904 1.27824L25.7147 2.24945L25.782 2.698H25.6474L25.3032 1.27824H25.4904ZM26.565 2.24847L26.7844 1.27824H26.9726L26.6294 2.698H26.4948L26.565 2.24847ZM26.2208 1.27824L26.4948 2.26895L26.5943 2.698H26.4587L26.1662 1.66341L26.0862 1.27824H26.2208ZM28.0832 2.54491V2.698H27.3314V2.54491H28.0832ZM27.3695 1.27824V2.698H27.1813V1.27824H27.3695ZM27.9838 1.88866V2.04175H27.3314V1.88866H27.9838ZM28.0735 1.27824V1.43231H27.3314V1.27824H28.0735ZM28.7005 2.698H28.4041L28.406 2.54491H28.7005C28.8019 2.54491 28.8864 2.52378 28.954 2.48152C29.0216 2.43862 29.0723 2.37881 29.1061 2.3021C29.1406 2.22475 29.1578 2.13439 29.1578 2.03102V1.94424C29.1578 1.86298 29.1481 1.79082 29.1286 1.72777C29.1091 1.66406 29.0805 1.61043 29.0428 1.56687C29.005 1.52267 28.9589 1.48919 28.9043 1.46644C28.8503 1.44369 28.7882 1.43231 28.718 1.43231H28.3982V1.27824H28.718C28.811 1.27824 28.8958 1.29384 28.9725 1.32505C29.0493 1.3556 29.1152 1.40013 29.1705 1.45864C29.2264 1.51649 29.2693 1.5867 29.2992 1.66926C29.3291 1.75117 29.3441 1.84348 29.3441 1.94619V2.03102C29.3441 2.13374 29.3291 2.22637 29.2992 2.30893C29.2693 2.39084 29.2261 2.46072 29.1695 2.51858C29.1136 2.57643 29.046 2.62096 28.9667 2.65217C28.888 2.68272 28.7993 2.698 28.7005 2.698ZM28.5045 1.27824V2.698H28.3163V1.27824H28.5045Z" fill="#8794BA"/>
<path d="M37.0702 1.27824V2.698H36.8849V1.27824H37.0702ZM37.5265 1.27824V1.43231H36.4296V1.27824H37.5265ZM38.6645 1.88866V2.04175H37.8961V1.88866H38.6645ZM37.9254 1.27824V2.698H37.7372V1.27824H37.9254ZM38.8283 1.27824V2.698H38.6411V1.27824H38.8283ZM39.975 1.27824H40.1623V2.23872C40.1623 2.34533 40.1385 2.43407 40.0911 2.50493C40.0436 2.57578 39.9806 2.62909 39.9019 2.66484C39.8239 2.69995 39.7391 2.7175 39.6474 2.7175C39.5512 2.7175 39.4641 2.69995 39.3861 2.66484C39.3087 2.62909 39.2473 2.57578 39.2018 2.50493C39.1569 2.43407 39.1345 2.34533 39.1345 2.23872V1.27824H39.3207V2.23872C39.3207 2.31283 39.3344 2.37394 39.3617 2.42204C39.389 2.47015 39.427 2.5059 39.4758 2.5293C39.5252 2.55271 39.5824 2.56441 39.6474 2.56441C39.7131 2.56441 39.7703 2.55271 39.819 2.5293C39.8684 2.5059 39.9068 2.47015 39.9341 2.42204C39.9614 2.37394 39.975 2.31283 39.975 2.23872V1.27824Z" fill="#8794BA"/>
<path d="M48.2342 1.27824V2.698H48.0461V1.27824H48.2342ZM48.8291 1.91694V2.071H48.1933V1.91694H48.8291ZM48.9256 1.27824V1.43231H48.1933V1.27824H48.9256ZM49.1499 1.27824H49.6199C49.7265 1.27824 49.8165 1.29449 49.89 1.327C49.9641 1.3595 50.0203 1.40761 50.0587 1.47131C50.0977 1.53437 50.1172 1.61205 50.1172 1.70436C50.1172 1.76937 50.1039 1.82885 50.0772 1.88281C50.0512 1.93611 50.0135 1.98162 49.9641 2.01932C49.9153 2.05638 49.8568 2.08401 49.7886 2.10221L49.7359 2.12268H49.2942L49.2922 1.96959H49.6257C49.6933 1.96959 49.7496 1.95789 49.7944 1.93449C49.8393 1.91044 49.8731 1.87826 49.8958 1.83795C49.9186 1.79765 49.93 1.75312 49.93 1.70436C49.93 1.64976 49.9192 1.60198 49.8978 1.56102C49.8763 1.52007 49.8425 1.48854 49.7964 1.46644C49.7509 1.44369 49.692 1.43231 49.6199 1.43231H49.3381V2.698H49.1499V1.27824ZM49.9797 2.698L49.6345 2.05443L49.8305 2.05345L50.1806 2.6863V2.698H49.9797ZM50.5823 1.27824V2.698H50.3941V1.27824H50.5823Z" fill="#8794BA"/>
<path d="M59.4486 2.33916C59.4486 2.306 59.4434 2.27675 59.433 2.2514C59.4232 2.2254 59.4057 2.20199 59.3803 2.18119C59.3556 2.16039 59.3212 2.14056 59.277 2.12171C59.2334 2.10286 59.1781 2.08368 59.1112 2.06418C59.041 2.04338 58.9776 2.0203 58.921 1.99495C58.8645 1.96894 58.8161 1.93936 58.7758 1.90621C58.7354 1.87306 58.7046 1.83503 58.6831 1.79212C58.6617 1.74922 58.6509 1.70014 58.6509 1.64488C58.6509 1.58963 58.6623 1.5386 58.6851 1.49179C58.7078 1.44499 58.7403 1.40436 58.7826 1.3699C58.8255 1.3348 58.8765 1.3075 58.9357 1.28799C58.9948 1.26849 59.0608 1.25874 59.1336 1.25874C59.2402 1.25874 59.3306 1.27922 59.4047 1.32017C59.4795 1.36048 59.5363 1.41346 59.5753 1.47911C59.6143 1.54412 59.6338 1.61368 59.6338 1.68779H59.4466C59.4466 1.63448 59.4353 1.58735 59.4125 1.5464C59.3897 1.50479 59.3553 1.47229 59.3091 1.44889C59.263 1.42483 59.2045 1.41281 59.1336 1.41281C59.0667 1.41281 59.0114 1.42288 58.9678 1.44304C58.9243 1.46319 58.8918 1.49049 58.8703 1.52494C58.8495 1.5594 58.8391 1.59873 58.8391 1.64293C58.8391 1.67284 58.8453 1.70014 58.8577 1.72484C58.8707 1.74889 58.8905 1.77132 58.9171 1.79212C58.9444 1.81293 58.9789 1.8321 59.0205 1.84965C59.0628 1.86721 59.1131 1.88411 59.1716 1.90036C59.2523 1.92311 59.3218 1.94847 59.3803 1.97642C59.4388 2.00437 59.4869 2.0359 59.5246 2.071C59.563 2.10546 59.5913 2.14479 59.6095 2.18899C59.6283 2.23255 59.6377 2.28195 59.6377 2.33721C59.6377 2.39506 59.626 2.4474 59.6026 2.4942C59.5792 2.54101 59.5458 2.58099 59.5022 2.61414C59.4587 2.64729 59.4063 2.67297 59.3452 2.69117C59.2848 2.70872 59.2172 2.7175 59.1424 2.7175C59.0767 2.7175 59.0121 2.7084 58.9483 2.6902C58.8853 2.672 58.8278 2.64469 58.7758 2.60829C58.7244 2.57188 58.6831 2.52703 58.6519 2.47372C58.6214 2.41977 58.6061 2.35736 58.6061 2.2865H58.7933C58.7933 2.33526 58.8027 2.37719 58.8216 2.41229C58.8404 2.44675 58.8661 2.47535 58.8986 2.4981C58.9318 2.52085 58.9691 2.53776 59.0108 2.54881C59.053 2.55921 59.0969 2.56441 59.1424 2.56441C59.2081 2.56441 59.2636 2.55531 59.3091 2.53711C59.3546 2.5189 59.3891 2.4929 59.4125 2.4591C59.4366 2.42529 59.4486 2.38531 59.4486 2.33916ZM60.4032 1.40403L59.9332 2.698H59.7411L60.2823 1.27824H60.4061L60.4032 1.40403ZM60.7971 2.698L60.3262 1.40403L60.3232 1.27824H60.4471L60.9902 2.698H60.7971ZM60.7728 2.17242V2.32648H59.9751V2.17242H60.7728ZM61.5782 1.27824V2.698H61.3929V1.27824H61.5782ZM62.0346 1.27824V1.43231H60.9376V1.27824H62.0346Z" fill="#8794BA"/>
<path d="M70.2564 2.33916C70.2564 2.306 70.2512 2.27675 70.2408 2.2514C70.231 2.2254 70.2135 2.20199 70.1881 2.18119C70.1634 2.16039 70.129 2.14056 70.0848 2.12171C70.0412 2.10286 69.9859 2.08368 69.919 2.06418C69.8488 2.04338 69.7854 2.0203 69.7288 1.99495C69.6723 1.96894 69.6239 1.93936 69.5835 1.90621C69.5432 1.87306 69.5124 1.83503 69.4909 1.79212C69.4695 1.74922 69.4587 1.70014 69.4587 1.64488C69.4587 1.58963 69.4701 1.5386 69.4929 1.49179C69.5156 1.44499 69.5481 1.40436 69.5904 1.3699C69.6333 1.3348 69.6843 1.3075 69.7435 1.28799C69.8026 1.26849 69.8686 1.25874 69.9414 1.25874C70.048 1.25874 70.1384 1.27922 70.2125 1.32017C70.2873 1.36048 70.3441 1.41346 70.3831 1.47911C70.4221 1.54412 70.4416 1.61368 70.4416 1.68779H70.2544C70.2544 1.63448 70.243 1.58735 70.2203 1.5464C70.1975 1.50479 70.1631 1.47229 70.1169 1.44889C70.0708 1.42483 70.0123 1.41281 69.9414 1.41281C69.8745 1.41281 69.8192 1.42288 69.7756 1.44304C69.7321 1.46319 69.6996 1.49049 69.6781 1.52494C69.6573 1.5594 69.6469 1.59873 69.6469 1.64293C69.6469 1.67284 69.6531 1.70014 69.6655 1.72484C69.6785 1.74889 69.6983 1.77132 69.7249 1.79212C69.7522 1.81293 69.7867 1.8321 69.8283 1.84965C69.8706 1.86721 69.9209 1.88411 69.9794 1.90036C70.0601 1.92311 70.1296 1.94847 70.1881 1.97642C70.2466 2.00437 70.2947 2.0359 70.3324 2.071C70.3708 2.10546 70.3991 2.14479 70.4173 2.18899C70.4361 2.23255 70.4455 2.28195 70.4455 2.33721C70.4455 2.39506 70.4338 2.4474 70.4104 2.4942C70.387 2.54101 70.3536 2.58099 70.31 2.61414C70.2664 2.64729 70.2141 2.67297 70.153 2.69117C70.0926 2.70872 70.0249 2.7175 69.9502 2.7175C69.8845 2.7175 69.8198 2.7084 69.7561 2.6902C69.6931 2.672 69.6356 2.64469 69.5835 2.60829C69.5322 2.57188 69.4909 2.52703 69.4597 2.47372C69.4292 2.41977 69.4139 2.35736 69.4139 2.2865H69.6011C69.6011 2.33526 69.6105 2.37719 69.6294 2.41229C69.6482 2.44675 69.6739 2.47535 69.7064 2.4981C69.7396 2.52085 69.7769 2.53776 69.8185 2.54881C69.8608 2.55921 69.9047 2.56441 69.9502 2.56441C70.0158 2.56441 70.0714 2.55531 70.1169 2.53711C70.1624 2.5189 70.1969 2.4929 70.2203 2.4591C70.2443 2.42529 70.2564 2.38531 70.2564 2.33916ZM71.4977 1.27824H71.6849V2.23872C71.6849 2.34533 71.6612 2.43407 71.6137 2.50493C71.5663 2.57578 71.5032 2.62909 71.4246 2.66484C71.3465 2.69995 71.2617 2.7175 71.17 2.7175C71.0738 2.7175 70.9867 2.69995 70.9087 2.66484C70.8314 2.62909 70.7699 2.57578 70.7244 2.50493C70.6796 2.43407 70.6571 2.34533 70.6571 2.23872V1.27824H70.8434V2.23872C70.8434 2.31283 70.857 2.37394 70.8843 2.42204C70.9116 2.47015 70.9497 2.5059 70.9984 2.5293C71.0478 2.55271 71.105 2.56441 71.17 2.56441C71.2357 2.56441 71.2929 2.55271 71.3417 2.5293C71.3911 2.5059 71.4294 2.47015 71.4567 2.42204C71.484 2.37394 71.4977 2.31283 71.4977 2.23872V1.27824ZM73.0725 1.27824V2.698H72.8833L72.1686 1.60295V2.698H71.9804V1.27824H72.1686L72.8862 2.37621V1.27824H73.0725Z" fill="#8794BA"/>
</svg>
